<?xml version="1.0" encoding="utf-8"?>
<!-- Generator: Adobe Illustrator 27.5.0, SVG Export Plug-In . SVG Version: 6.00 Build 0)  -->
<svg version="1.1" id="Layer_1" xmlns="http://www.w3.org/2000/svg"
	xmlns:xlink="http://www.w3.org/1999/xlink" x="0px" y="0px"
	viewBox="0 0 700 400" style="enable-background:new 0 0 700 400;" xml:space="preserve">
<g>
	<path style="fill:#96B9E3;" d="M665.695,337.913c0,5.842-141.342,10.577-315.695,10.577c-174.354,0-315.695-4.735-315.695-10.577
		c0-5.842,141.341-10.578,315.695-10.578C524.354,327.335,665.695,332.071,665.695,337.913z"/>
	<g>
		<g>
			<g>
				<path style="fill:#CCDDFC;" d="M177.047,248.79c-4.056-3.605-6.204-9.75-5.4-14.951c0.503-3.251,9.655-8.914,9.655-8.914
					l-13.646-14.834c0,0-6.407,8.678-9.681,8.905c-5.009,0.366-10.673-2.208-13.721-6.388c-1.937-2.66,0.569-13.125,0.569-13.125
					l-20.16-0.87c0,0,1.574,10.657-0.561,13.123c-2.977,3.423-8.277,5.155-12.606,4.291c-3.225-0.643-8.44-10.048-8.44-10.048
					L87.61,218.946c0,0,8.365,6.775,8.451,10.051c0.137,5.506-2.787,11.582-7.404,14.871c-2.68,1.911-13.143-0.732-13.143-0.732
					l-1.125,20.14c0,0,10.648-1.456,13.093,0.72c4.053,3.629,6.209,9.769,5.397,14.964c-0.5,3.249-9.656,8.912-9.656,8.912
					l13.643,14.827c0,0,6.402-8.672,9.68-8.898c4.996-0.358,10.683,2.219,13.732,6.383c1.934,2.67-0.552,13.126-0.552,13.126
					l20.144,0.866c0,0-1.6-10.649,0.548-13.118c2.981-3.415,8.295-5.162,12.628-4.296c3.208,0.66,8.436,10.059,8.436,10.059
					l15.436-12.969c0,0-8.354-6.779-8.448-10.06c-0.128-5.5,2.792-11.568,7.413-14.869c2.684-1.897,13.139,0.747,13.139,0.747
					l1.113-20.139C190.133,249.529,179.497,250.972,177.047,248.79z M130.84,289.315c-18.428-0.797-32.734-16.385-31.93-34.813
					c0.799-18.434,16.379-32.727,34.816-31.938c18.412,0.805,32.733,16.385,31.918,34.82
					C164.862,275.81,149.273,290.105,130.84,289.315z"/>
			</g>
			<g>
				<path style="fill:#CCDDFC;" d="M133.385,230.89c-14.088-0.604-26.002,10.316-26.605,24.412
					c-0.609,14.084,10.316,25.986,24.391,26.601c14.096,0.609,26.006-10.317,26.616-24.407
					C158.397,243.412,147.471,231.503,133.385,230.89z M131.715,268.802c-7.108-0.309-12.621-6.313-12.327-13.421
					c0.321-7.104,6.323-12.599,13.423-12.299c7.111,0.306,12.615,6.31,12.311,13.419
					C144.825,263.61,138.814,269.106,131.715,268.802z"/>
			</g>
		</g>
		<g>
			<g>
				<path style="fill:#CCDDFC;" d="M588.074,312.12c0,3.788-3.224,6.862-7.217,6.862H422.12c-3.999,0-7.222-3.074-7.222-6.862
					v-94.389c0-3.789,3.223-6.857,7.222-6.857h158.737c3.993,0,7.217,3.068,7.217,6.857V312.12z"/>
			</g>
			<g>
				<path style="fill:#264D86;" d="M580.857,210.874H422.12c-3.999,0-7.222,3.068-7.222,6.857v12.729h173.176v-12.729
					C588.074,213.942,584.851,210.874,580.857,210.874z"/>
			</g>
			<g>
				<path style="fill:#CCDDFC;" d="M554.711,224.659c-2.281,0-4.132-1.766-4.132-3.933c0-2.169,1.851-3.937,4.132-3.937
					c2.27,0,4.116,1.768,4.116,3.937C558.827,222.893,556.98,224.659,554.711,224.659z M554.711,217.854
					c-1.693,0-3.07,1.29-3.07,2.872c0,1.579,1.377,2.866,3.07,2.866c1.683,0,3.051-1.287,3.051-2.866
					C557.762,219.145,556.394,217.854,554.711,217.854z"/>
			</g>
			<g>
				<path style="fill:#CCDDFC;" d="M565.6,224.659c-2.266,0-4.121-1.766-4.121-3.933c0-2.169,1.855-3.937,4.121-3.937
					c2.275,0,4.121,1.768,4.121,3.937C569.721,222.893,567.875,224.659,565.6,224.659z M565.6,217.854
					c-1.678,0-3.051,1.29-3.051,2.872c0,1.579,1.373,2.866,3.051,2.866c1.693,0,3.061-1.287,3.061-2.866
					C568.66,219.145,567.293,217.854,565.6,217.854z"/>
			</g>
			<g>
				<path style="fill:#CCDDFC;" d="M576.178,224.659c-2.275,0-4.117-1.766-4.117-3.933c0-2.169,1.842-3.937,4.117-3.937
					c2.266,0,4.117,1.768,4.117,3.937C580.295,222.893,578.443,224.659,576.178,224.659z M576.178,217.854
					c-1.688,0-3.055,1.29-3.055,2.872c0,1.579,1.367,2.866,3.055,2.866c1.678,0,3.051-1.287,3.051-2.866
					C579.229,219.145,577.855,217.854,576.178,217.854z"/>
			</g>
			<rect x="424.707" y="236.44" style="fill:#E1EDFF;" width="151.979" height="69.399"/>
		</g>
		<g>
			<g>
				<path style="fill:#F5F5FF;" d="M135.146,224.518c0,3.92,3.332,7.104,7.468,7.104H306.9c4.142,0,7.474-3.184,7.474-7.104v-97.689
					c0-3.922-3.332-7.099-7.474-7.099H142.614c-4.136,0-7.468,3.177-7.468,7.099V224.518z"/>
			</g>
			<g>
				<path style="fill:#468DF5;" d="M142.614,119.73H306.9c4.142,0,7.474,3.177,7.474,7.099v13.173H135.146v-13.173
					C135.146,122.907,138.478,119.73,142.614,119.73z"/>
			</g>
			<g>
				<path style="fill:#CCDDFC;" d="M165.415,129.929c0-2.246,1.91-4.073,4.26-4.073c2.36,0,4.275,1.827,4.275,4.073
					c0,2.242-1.915,4.07-4.275,4.07C167.325,133.999,165.415,132.171,165.415,129.929z M166.515,129.929
					c0,1.635,1.417,2.966,3.159,2.966c1.753,0,3.179-1.331,3.179-2.966c0-1.639-1.427-2.973-3.179-2.973
					C167.932,126.956,166.515,128.29,166.515,129.929z"/>
			</g>
			<g>
				<path style="fill:#CCDDFC;" d="M154.135,129.929c0-2.246,1.915-4.073,4.27-4.073c2.345,0,4.265,1.827,4.265,4.073
					c0,2.242-1.92,4.07-4.265,4.07C156.051,133.999,154.135,132.171,154.135,129.929z M155.236,129.929
					c0,1.635,1.417,2.966,3.169,2.966c1.737,0,3.159-1.331,3.159-2.966c0-1.639-1.422-2.973-3.159-2.973
					C156.653,126.956,155.236,128.29,155.236,129.929z"/>
			</g>
			<g>
				<path style="fill:#CCDDFC;" d="M143.197,129.929c0-2.246,1.91-4.073,4.26-4.073c2.355,0,4.26,1.827,4.26,4.073
					c0,2.242-1.905,4.07-4.26,4.07C145.107,133.999,143.197,132.171,143.197,129.929z M144.297,129.929
					c0,1.635,1.417,2.966,3.159,2.966c1.743,0,3.159-1.331,3.159-2.966c0-1.639-1.417-2.973-3.159-2.973
					C145.714,126.956,144.297,128.29,144.297,129.929z"/>
			</g>
			<rect x="146.934" y="146.193" style="fill:#CCDDFC;" width="157.296" height="71.825"/>
		</g>
		<g>
			<g>
				<g>
					<g>
						<path style="fill:#FFB502;" d="M545.06,134.919l0.317,2.389c-0.005,0.01,1.583-0.204,3.147-0.504
							c1.567-0.271,3.178-0.702,3.178-0.702l-0.672-2.318c0,0-1.433,0.373-2.949,0.647
							C546.58,134.712,545.06,134.919,545.06,134.919z"/>
					</g>
				</g>
				<g>
					<g>
						<path style="fill:#FFB502;" d="M535.95,135.362l-0.078,2.42c0,0,1.599,0.099,3.204,0.02c1.59-0.067,3.196-0.156,3.196-0.156
							l-0.199-2.414c0,0-1.528,0.089-3.061,0.156C537.479,135.458,535.95,135.362,535.95,135.362z"/>
					</g>
				</g>
				<g>
					<g>
						<path style="fill:#FFB502;" d="M526.964,134.191l-0.563,2.356c0,0,1.579,0.316,3.159,0.639
							c1.58,0.261,3.192,0.392,3.192,0.392l0.225-2.407c0,0-1.523-0.128-3.026-0.36
							C528.448,134.504,526.964,134.191,526.964,134.191z"/>
					</g>
				</g>
				<g>
					<g>
						<path style="fill:#FFB502;" d="M518.624,130.996l-1.221,2.092c0,0,1.464,0.702,2.927,1.406c0.708,0.393,1.476,0.66,2.066,0.83
							c0.577,0.188,0.968,0.315,0.968,0.315l0.777-2.29c0.035-0.054-1.481-0.34-2.822-1.052
							C519.974,131.65,518.624,130.996,518.624,130.996z"/>
					</g>
				</g>
				<g>
					<g>
						<path style="fill:#FFB502;" d="M511.603,125.468l-1.768,1.68c0,0,1.168,1.107,2.35,2.227c1.119,1.199,2.611,1.916,2.561,1.982
							l1.406-1.975c0.053-0.053-1.355-0.711-2.388-1.835C512.684,126.508,511.603,125.468,511.603,125.468z"/>
					</g>
				</g>
				<g>
					<g>
						<path style="fill:#FFB502;" d="M506.619,118.068l-2.154,1.096c0,0,0.73,1.446,1.468,2.89c0.956,1.302,1.915,2.61,1.915,2.61
							l1.906-1.483c0,0-0.891-1.208-1.78-2.433C507.296,119.408,506.619,118.068,506.619,118.068z"/>
					</g>
				</g>
				<g>
					<g>
						<polygon style="fill:#FFB502;" points="503.337,109.201 501.245,110.578 503.094,116.325 505.316,115.378 						"/>
					</g>
				</g>
			</g>
			<g>
				<g>
					<g>
						<path style="fill:#FFB502;" d="M500.072,100.146l-1.781,1.951c0,0,0.595,1.39,1.186,2.775c0.525,1.412,0.92,2.879,0.92,2.879
							l1.983-1.581c0,0-0.426-1.567-1.011-3.075C500.723,101.621,500.072,100.146,500.072,100.146z"/>
					</g>
				</g>
				<g>
					<g>
						<path style="fill:#FFB502;" d="M495.014,92.035l-1.351,2.401c0,0,0.954,1.162,1.806,2.408
							c0.756,1.309,1.512,2.608,1.512,2.608l1.658-2.106c0,0-0.838-1.388-1.663-2.767C496.064,93.271,495.014,92.035,495.014,92.035
							z"/>
					</g>
				</g>
				<g>
					<g>
						<path style="fill:#FFB502;" d="M487.924,85.678l-0.86,2.718c0,0,1.241,0.869,2.457,1.752c1.139,0.983,2.202,2.071,2.202,2.071
							l1.202-2.525c0,0-1.154-1.125-2.354-2.176C489.243,86.596,487.924,85.678,487.924,85.678z"/>
					</g>
				</g>
				<g>
					<g>
						<path style="fill:#FFB502;" d="M479.006,82.366l-0.27,2.87c0.053-0.283,5.836,1.523,5.734,1.767l0.666-2.775
							C485.24,83.977,479.072,82.082,479.006,82.366z"/>
					</g>
				</g>
				<g>
					<g>
						<path style="fill:#FFB502;" d="M469.507,82.788l0.313,2.858c0,0,1.483-0.287,2.97-0.568c1.511-0.073,3.013-0.121,3.013-0.121
							l0.087-2.892c0,0-1.624,0.021-3.222,0.123C471.082,82.501,469.507,82.788,469.507,82.788z"/>
					</g>
				</g>
				<g>
					<g>
						<path style="fill:#FFB502;" d="M460.875,86.812l0.881,2.672c-0.116-0.171,5.158-3.122,5.271-2.885l-0.504-2.816
							C466.406,83.53,460.754,86.619,460.875,86.812z"/>
					</g>
				</g>
				<g>
					<g>
						<path style="fill:#FFB502;" d="M453.955,93.377l1.377,2.339c0,0,0.238-0.29,0.575-0.739c0.375-0.436,0.782-1.081,1.348-1.573
							c1.085-1.06,2.161-2.112,2.161-2.112l-1.047-2.583c0,0-1.157,1.115-2.322,2.225c-0.616,0.528-1.068,1.196-1.459,1.658
							C454.211,93.064,453.955,93.377,453.955,93.377z"/>
					</g>
				</g>
			</g>
			<g>
				<g>
					<g>
						<path style="fill:#FFB502;" d="M448.9,101.509l1.78,1.875c0,0,0.69-1.346,1.347-2.694c0.79-1.295,1.589-2.578,1.589-2.578
							l-1.532-2.206c0,0-0.856,1.368-1.716,2.732C449.64,100.071,448.9,101.509,448.9,101.509z"/>
					</g>
				</g>
				<g>
					<g>
						<path style="fill:#FFB502;" d="M445.245,110.433l2.102,1.298c0,0,0.513-1.429,1.024-2.844c0.513-1.425,1.12-2.806,1.12-2.806
							l-1.91-1.702c0,0-0.664,1.487-1.225,3.006C445.801,108.914,445.245,110.433,445.245,110.433z"/>
					</g>
				</g>
				<g>
					<g>
						<path style="fill:#FFB502;" d="M442.129,119.493l2.261,0.836c0,0,0.561-1.491,1.03-2.921c0.493-1.445,0.979-2.881,0.979-2.881
							l-2.179-1.077c0,0-0.521,1.521-1.047,3.048C442.666,118.046,442.129,119.493,442.129,119.493z"/>
					</g>
				</g>
				<g>
					<g>
						<path style="fill:#FFB502;" d="M438.351,127.736l2.049,1.271c0,0,0.843-1.4,1.567-2.846c0.665-1.467,1.315-2.926,1.315-2.926
							l-2.231-0.921c0,0-0.625,1.401-1.241,2.786C439.123,126.453,438.351,127.736,438.351,127.736z"/>
					</g>
				</g>
				<g>
					<g>
						<path style="fill:#FFB502;" d="M432.377,134.07l1.35,2.021c0.204,0.262,5.1-4.254,4.842-4.463l-1.902-1.51
							C436.883,130.33,432.558,134.325,432.377,134.07z"/>
					</g>
				</g>
				<g>
					<g>
						<path style="fill:#FFB502;" d="M424.213,137.144l0.41,2.38c0,0,1.589-0.335,3.194-0.657c1.546-0.561,3.079-1.189,3.079-1.189
							l-1.013-2.196c0,0-1.362,0.534-2.739,1.064C425.673,136.839,424.213,137.144,424.213,137.144z"/>
					</g>
				</g>
				<g>
					<g>
						<path style="fill:#FFB502;" d="M415.211,137.438l-0.148,2.415c0,0,1.589,0.095,3.185,0.19
							c1.607-0.086,3.222-0.169,3.222-0.169l-0.182-2.41c0,0-1.512,0.088-3.021,0.165
							C416.743,137.533,415.211,137.438,415.211,137.438z"/>
					</g>
				</g>
			</g>
		</g>
		<g>
			<path style="fill:#264D86;" d="M501.486,320.771c0,5.804-4.938,10.505-11.024,10.505H238.988
				c-6.086,0-11.028-4.701-11.028-10.505V169.075c0-5.811,4.942-10.52,11.028-10.52h251.474c6.086,0,11.024,4.71,11.024,10.52
				V320.771z"/>
			<rect x="241.237" y="177.402" style="fill:#CCDDFC;" width="246.221" height="145.065"/>
			<rect x="198.986" y="322.468" style="fill:#264D86;" width="328.599" height="17.635"/>
		</g>
		<g>
			<g>
				<g>
					<g>
						<g>
							<path style="fill:#1B2044;" d="M134.286,85.813l-0.254-1.755c-0.025-0.108-4.746,0.918-4.763,1.028l0.538,1.679
								C129.741,86.688,134.271,85.704,134.286,85.813z"/>
						</g>
					</g>
					<g>
						<g>
							<path style="fill:#1B2044;" d="M141.108,85.547l0.153-1.758c-0.005-0.1-4.877-0.127-4.872,0.014l0.138,1.754
								C136.527,85.43,141.124,85.463,141.108,85.547z"/>
						</g>
					</g>
					<g>
						<g>
							<path style="fill:#1B2044;" d="M147.598,87.188l0.748-1.605c0.063-0.188-4.676-1.675-4.711-1.478l-0.314,1.733
								C143.372,85.669,147.675,87.019,147.598,87.188z"/>
						</g>
					</g>
					<g>
						<g>
							<path style="fill:#1B2044;" d="M152.725,91.24l1.414-1.073c0.044-0.039-0.806-0.953-1.707-1.841
								c-0.831-0.947-1.996-1.502-1.951-1.549l-0.984,1.472c-0.044,0.045,0.997,0.523,1.732,1.369
								C152.016,90.404,152.782,91.196,152.725,91.24z"/>
						</g>
					</g>
					<g>
						<g>
							<path style="fill:#1B2044;" d="M155.538,97.327l1.682-0.565c0.224,0.02-1.644-4.594-1.746-4.545l-1.547,0.846
								C154.009,93.016,155.711,97.192,155.538,97.327z"/>
						</g>
					</g>
					<g>
						<g>
							<path style="fill:#1B2044;" d="M157.277,104.353l1.547-0.926c0,0-0.115-0.26-0.244-0.671c-0.096-0.41-0.217-0.97-0.345-1.525
								c-0.249-1.116-0.505-2.235-0.505-2.235l-1.669,0.621c0,0,0.282,1.195,0.556,2.381c0.136,0.599,0.282,1.195,0.39,1.64
								C157.143,104.078,157.277,104.353,157.277,104.353z"/>
						</g>
					</g>
					<g>
						<g>
							<path style="fill:#1B2044;" d="M160.973,110.573l1.253-1.335c0.05-0.04-0.883-0.749-1.413-1.778
								c-0.62-0.965-1.209-1.932-1.165-1.956l-1.47,1.067c-0.064,0.035,0.588,1.074,1.259,2.101
								C160.012,109.774,161.017,110.532,160.973,110.573z"/>
						</g>
					</g>
				</g>
				<g>
					<g>
						<g>
							<path style="fill:#1B2044;" d="M167.032,114.492l0.844-1.623c-0.013,0.045-1.061-0.4-2.084-0.915
								c-1.049-0.453-1.885-1.277-1.904-1.228l-1.138,1.445c0.019-0.048,0.92,0.832,2.039,1.32
								C165.895,114.051,167.02,114.541,167.032,114.492z"/>
						</g>
					</g>
					<g>
						<g>
							<path style="fill:#1B2044;" d="M174.186,115.828l0.352-1.754c0,0-1.131-0.094-2.269-0.183
								c-1.119-0.197-2.238-0.396-2.238-0.396l-0.703,1.683c0,0,1.202,0.229,2.411,0.443
								C172.965,115.728,174.186,115.828,174.186,115.828z"/>
						</g>
					</g>
					<g>
						<g>
							<path style="fill:#1B2044;" d="M181.481,115.617l-0.135-1.764c0,0-1.157,0.127-2.289,0.179
								c-1.137,0.084-2.288,0.077-2.288,0.077l-0.179,1.768c0,0,1.227,0.005,2.455-0.079
								C180.285,115.748,181.481,115.617,181.481,115.617z"/>
						</g>
					</g>
					<g>
						<g>
							<polygon style="fill:#1B2044;" points="188.52,114.844 188.34,113.083 183.623,113.631 183.827,115.382 							"/>
						</g>
					</g>
					<g>
						<g>
							<path style="fill:#1B2044;" d="M194.836,115.603l0.85-1.552c0,0-1.118-0.664-2.39-0.946c-0.634-0.15-1.28-0.256-1.841-0.249
								c-0.46,0.02-0.76,0.038-0.76,0.038l0.083,1.769c0,0,0.282-0.022,0.716-0.041c0.325-0.01,0.843,0.073,1.368,0.194
								C193.909,115.049,194.836,115.603,194.836,115.603z"/>
						</g>
					</g>
					<g>
						<g>
							<path style="fill:#1B2044;" d="M198.813,120.45l1.655-0.622c0,0-0.127-0.291-0.306-0.723
								c-0.166-0.451-0.467-1.014-0.819-1.55c-0.659-1.107-1.61-2.002-1.61-2.002l-1.228,1.286c0,0,0.793,0.721,1.343,1.661
								C198.467,119.383,198.78,120.477,198.813,120.45z"/>
						</g>
					</g>
					<g>
						<g>
							<path style="fill:#1B2044;" d="M199.778,127.055l1.765,0.019c0,0,0.038-0.296,0-0.756c-0.025-0.458-0.051-1.075-0.077-1.688
								c0-0.607-0.153-1.218-0.211-1.679c-0.077-0.46-0.122-0.767-0.122-0.767l-1.732,0.358c0,0,0.046,0.277,0.115,0.693
								c0.052,0.425,0.192,0.962,0.192,1.537c0.033,0.568,0.059,1.139,0.071,1.566C199.816,126.768,199.778,127.055,199.778,127.055
								z"/>
						</g>
					</g>
				</g>
			</g>
		</g>
		<g>
			<rect x="289.77" y="66.707" style="fill:#F5F5FF;" width="152.537" height="249.533"/>
			<rect x="289.77" y="66.707" style="fill:#468DF5;" width="152.537" height="25.328"/>
			<path style="fill:#FFFFFF;" d="M422.497,137.86c0,7.002-5.669,12.671-12.672,12.671h-89.061c-6.99,0-12.656-5.669-12.656-12.671
				l0,0c0-6.979,5.665-12.648,12.656-12.648h89.061C416.828,125.212,422.497,130.881,422.497,137.86L422.497,137.86z"/>
			<path style="fill:#FFFFFF;" d="M422.497,182.396c0,6.994-5.669,12.667-12.672,12.667h-89.061c-6.99,0-12.656-5.673-12.656-12.667
				l0,0c0-6.991,5.665-12.66,12.656-12.66h89.061C416.828,169.736,422.497,175.405,422.497,182.396L422.497,182.396z"/>
			<path style="fill:#FFB502;" d="M398.041,220.824c0,6.032-4.891,10.907-10.914,10.907h-43.665
				c-6.023,0-10.911-4.875-10.911-10.907l0,0c0-6.037,4.888-10.917,10.911-10.917h43.665
				C393.15,209.907,398.041,214.787,398.041,220.824L398.041,220.824z"/>
			<path style="fill:#FFB502;" d="M422.497,108.187c0,2.651-2.154,4.804-4.814,4.804H312.912c-2.658,0-4.804-2.152-4.804-4.804l0,0
				c0-2.66,2.146-4.806,4.804-4.806h104.771C420.343,103.381,422.497,105.526,422.497,108.187L422.497,108.187z"/>
			<rect x="295.876" y="72.82" style="fill:#FFFFFF;" width="22.706" height="2.617"/>
			<rect x="295.876" y="78.059" style="fill:#FFFFFF;" width="22.706" height="2.616"/>
			<rect x="295.876" y="83.295" style="fill:#FFFFFF;" width="22.706" height="2.623"/>
			<path style="fill:#FF2363;" d="M324.951,187.1c0,1.753-1.427,3.177-3.181,3.177c-1.76,0-3.188-1.424-3.188-3.177
				c0-1.762,1.428-3.186,3.188-3.186C323.524,183.914,324.951,185.338,324.951,187.1z"/>
			<path style="fill:#FF2363;" d="M334.78,187.1c0,1.753-1.427,3.177-3.184,3.177c-1.758,0-3.185-1.424-3.185-3.177
				c0-1.762,1.427-3.186,3.185-3.186C333.353,183.914,334.78,185.338,334.78,187.1z"/>
			<path style="fill:#FF2363;" d="M344.61,187.1c0,1.753-1.424,3.177-3.177,3.177c-1.766,0-3.192-1.424-3.192-3.177
				c0-1.762,1.427-3.186,3.192-3.186C343.186,183.914,344.61,185.338,344.61,187.1z"/>
			<path style="fill:#FF2363;" d="M354.443,187.1c0,1.753-1.428,3.177-3.189,3.177c-1.761,0-3.192-1.424-3.192-3.177
				c0-1.762,1.431-3.186,3.192-3.186C353.016,183.914,354.443,185.338,354.443,187.1z"/>
			<path style="fill:#FF2363;" d="M364.269,187.1c0,1.753-1.423,3.177-3.185,3.177c-1.762,0-3.186-1.424-3.186-3.177
				c0-1.762,1.424-3.186,3.186-3.186C362.846,183.914,364.269,185.338,364.269,187.1z"/>
			<path style="fill:#FF2363;" d="M374.094,187.1c0,1.753-1.428,3.177-3.181,3.177c-1.761,0-3.185-1.424-3.185-3.177
				c0-1.762,1.424-3.186,3.185-3.186C372.666,183.914,374.094,185.338,374.094,187.1z"/>
		</g>
		<g>
			<g>
				<path style="fill:#FFCF03;" d="M530.037,139.68c0-15.195-17.133-27.519-38.256-27.519c-21.129,0-40.664,17.01-40.664,32.205
					c0,14.911,18.899,22.358,39.478,22.811c-0.59,8.488-12.039,12.514-12.039,12.514C501.58,181.901,530.037,164.24,530.037,139.68z
					"/>
			</g>
			<g>
				<path style="fill:#FFFFFF;" d="M481.041,132.397c0-0.96-0.031-1.779-0.064-2.46h2.084l0.11,1.057h0.047
					c0.314-0.489,1.101-1.23,2.383-1.23c1.58,0,2.76,1.044,2.76,3.314v4.575h-2.399v-4.276c0-0.994-0.344-1.67-1.209-1.67
					c-0.668,0-1.063,0.457-1.22,0.898c-0.064,0.145-0.095,0.379-0.095,0.6v4.448h-2.398V132.397z"/>
				<path style="fill:#FFFFFF;" d="M497.799,133.71c0,2.823-1.998,4.119-4.066,4.119c-2.258,0-3.995-1.485-3.995-3.977
					c0-2.494,1.645-4.089,4.121-4.089C496.226,129.764,497.799,131.391,497.799,133.71z M492.223,133.788
					c0,1.325,0.543,2.32,1.573,2.32c0.928,0,1.525-0.931,1.525-2.32c0-1.152-0.441-2.319-1.525-2.319
					C492.639,131.469,492.223,132.654,492.223,133.788z"/>
				<path style="fill:#FFFFFF;" d="M501.855,127.729v2.208h1.722v1.77h-1.722v2.792c0,0.929,0.229,1.354,0.951,1.354
					c0.3,0,0.534-0.029,0.707-0.06l0.018,1.812c-0.315,0.128-0.881,0.206-1.565,0.206c-0.771,0-1.415-0.266-1.802-0.662
					c-0.44-0.458-0.659-1.198-0.659-2.288v-3.154h-1.021v-1.77h1.021v-1.672L501.855,127.729z"/>
				<path style="fill:#FFFFFF;" d="M472.402,149.491v-5.947h-1.015v-1.767h1.015v-0.301c0-0.93,0.279-1.953,0.973-2.588
					c0.603-0.569,1.439-0.77,2.131-0.77c0.541,0,0.95,0.06,1.28,0.155l-0.093,1.848c-0.205-0.062-0.457-0.108-0.771-0.108
					c-0.795,0-1.123,0.614-1.123,1.37v0.395h1.548v1.767h-1.533v5.947H472.402z"/>
				<path style="fill:#FFFFFF;" d="M484.871,145.549c0,2.823-2.006,4.12-4.075,4.12c-2.255,0-3.993-1.484-3.993-3.977
					c0-2.496,1.643-4.088,4.12-4.088C483.289,141.605,484.871,143.228,484.871,145.549z M479.28,145.627
					c0,1.327,0.549,2.319,1.579,2.319c0.928,0,1.534-0.929,1.534-2.319c0-1.152-0.448-2.319-1.534-2.319
					C479.705,143.308,479.28,144.493,479.28,145.627z"/>
				<path style="fill:#FFFFFF;" d="M493.521,147.018c0,1.01,0.031,1.829,0.063,2.474h-2.085l-0.109-1.087h-0.047
					c-0.307,0.473-1.03,1.265-2.423,1.265c-1.556,0-2.712-0.979-2.712-3.364v-4.527h2.414v4.15c0,1.121,0.37,1.797,1.202,1.797
					c0.662,0,1.04-0.458,1.196-0.836c0.064-0.143,0.079-0.33,0.079-0.521v-4.59h2.422V147.018z"/>
				<path style="fill:#FFFFFF;" d="M495.33,144.236c0-0.96-0.032-1.781-0.056-2.459h2.074l0.112,1.056h0.046
					c0.323-0.489,1.109-1.229,2.391-1.229c1.572,0,2.761,1.043,2.761,3.313v4.573h-2.399v-4.275c0-0.994-0.346-1.672-1.21-1.672
					c-0.669,0-1.063,0.46-1.219,0.899c-0.063,0.144-0.095,0.379-0.095,0.599v4.449h-2.405V144.236z"/>
				<path style="fill:#FFFFFF;" d="M511.952,138.29v8.9c0,0.865,0.031,1.783,0.063,2.301h-2.132l-0.102-1.134h-0.032
					c-0.495,0.869-1.431,1.311-2.422,1.311c-1.824,0-3.294-1.563-3.294-3.964c-0.016-2.6,1.611-4.1,3.452-4.1
					c0.942,0,1.69,0.329,2.037,0.867h0.031v-4.182H511.952z M509.555,145.042c0-0.124-0.017-0.298-0.031-0.424
					c-0.142-0.646-0.661-1.184-1.401-1.184c-1.092,0-1.657,0.977-1.657,2.192c0,1.309,0.644,2.129,1.643,2.129
					c0.691,0,1.242-0.473,1.384-1.149c0.047-0.174,0.064-0.349,0.064-0.552V145.042z"/>
			</g>
		</g>
		<g>
			<g>
				<g>
					<path style="fill:#1B2044;" d="M625.591,280.987c-0.039-2.513,1.986-4.581,4.5-4.611c2.5-0.037,4.58,1.979,4.607,4.493
						c0.034,2.514-1.985,4.586-4.493,4.616C627.69,285.52,625.625,283.499,625.591,280.987z M633.448,280.887
						c-0.027-1.819-1.525-3.283-3.345-3.264c-1.824,0.026-3.289,1.53-3.262,3.35c0.021,1.818,1.523,3.282,3.35,3.253
						C632.009,284.206,633.468,282.711,633.448,280.887z"/>
				</g>
			</g>
		</g>
		<g>
			<g>
				<g>
					<path style="fill:#FFB502;" d="M631.368,229.37l0.85,0.923l-3.906,3.607c-1.156,1.073-1.235,2.905-0.167,4.069l2.87,3.135
						c0.748,0.819,1.129,1.876,1.082,2.982c-0.054,1.103-0.534,2.123-1.345,2.871l-2.612,2.371c-0.569,0.528-0.91,1.243-0.938,2.021
						c-0.033,0.78,0.247,1.521,0.782,2.09l2.588,2.749c0.789,0.842,1.19,1.945,1.117,3.094c-0.074,1.145-0.615,2.214-1.498,2.936
						l-1.779,1.461c-0.648,0.541-1.036,1.326-1.049,2.162c-0.019,0.85,0.334,1.655,0.963,2.22l3.729,3.33l-0.835,0.936l-3.731-3.333
						c-0.901-0.806-1.402-1.967-1.383-3.177c0.032-1.206,0.582-2.338,1.51-3.099l1.779-1.471c0.615-0.508,0.99-1.237,1.043-2.043
						c0.054-0.805-0.227-1.581-0.775-2.163l-2.587-2.75c-0.771-0.807-1.171-1.876-1.124-2.99c0.047-1.12,0.523-2.142,1.344-2.904
						l2.608-2.367c0.567-0.525,0.902-1.233,0.935-1.999c0.033-0.772-0.227-1.512-0.749-2.079l-2.868-3.143
						c-1.531-1.672-1.418-4.285,0.241-5.829L631.368,229.37z"/>
				</g>
			</g>
		</g>
		<g>
			<g>
				<g>
					<g>
						<g>
							<path style="fill:#FBC6B4;" d="M477.544,318.462c1.934-2.202,1.855-2.537,1.316-3.244c-0.459-0.613-1.002-1.194-1.608-1.776
								l4.263-2.596c0.865,1.561,1.519,2.973,1.836,4.133C483.033,315.384,480.523,318.68,477.544,318.462z"/>
						</g>
					</g>
					<g>
						<g>
							<path style="fill:#1B416D;" d="M483.351,314.978c0.004-0.044,0.044-0.082,0.044-0.082c2.414,3.604-3.103,5.743-6.339,6.212
								c-3.24,0.464,0.488-2.647,0.488-2.647C480.523,318.68,483.033,315.384,483.351,314.978z"/>
						</g>
					</g>
				</g>
				<g>
					<g>
						<path style="fill:#FFB502;" d="M482.815,310.06c0.579,2.076-4.037,5.397-5.335,4.297
							c-11.142-9.463-23.059-30.065-27.502-38.49c-0.2-0.374-0.397-0.721-0.578-1.042c-2.218-3.634-3.491-2.882-11.024-19.706
							c-2.45-5.431-3.925-14.949-3.925-14.949l7.478-3.09l17.205-7.235c5.969,5.686,7.986,22.128,9.283,28.789
							c1.065,5.631,2.309,14.725,3.488,19.108C476.065,293.034,479.061,296.145,482.815,310.06z"/>
					</g>
				</g>
				<g>
					<g>
						<g>
							<path style="fill:#FBC6B4;" d="M433.936,322.583c2.7-1.191,2.755-1.538,2.575-2.402c-0.173-0.725-0.429-1.501-0.715-2.272
								l4.946-0.583c0.125,1.77,0.125,3.318-0.071,4.53C440.224,322.083,436.567,324.025,433.936,322.583z"/>
						</g>
					</g>
					<g>
						<g>
							<path style="fill:#1B416D;" d="M440.672,321.855c0.04-0.04,0.086-0.072,0.086-0.072c0.693,4.306-5.213,3.929-8.347,3.001
								c-3.152-0.933,1.525-2.201,1.525-2.201C436.567,324.025,440.224,322.083,440.672,321.855z"/>
						</g>
					</g>
				</g>
				<g>
					<g>
						<path style="fill:#FFCF03;" d="M450.61,264.405c-1.383,5.574-4.473,11.314-4.473,19.131c0,15.908-1.494,19.426-3.861,33.624
							c-0.269,1.644-3.755,2.683-5.631,2.304c-0.286-0.063-0.542-0.141-0.72-0.282c-0.181-0.09-0.291-0.205-0.349-0.35
							c-6.146-13.239-10.271-35.783-10.82-45.274c-0.319-5.603-0.173-4.907,0.031-24.881c0.056-5.976,2.657-15.229,2.657-15.229
							l24.817,0.8C455.314,241.928,452.204,257.827,450.61,264.405z"/>
					</g>
				</g>
				<g>
					<g>
						<path style="fill:#FFFFFF;" d="M436.646,319.464c-0.286-0.063-0.542-0.141-0.72-0.282c-3.754-10.475-5.367-21.62-6.751-31.259
							c-1.187-8.166-2.507-17.456-2.547-26.572c-0.023-9.983,1.589-18.784,4.796-26.174c0.059-0.15,0.228-0.205,0.379-0.15
							c0.142,0.064,0.228,0.236,0.164,0.385c-3.177,7.29-4.785,16.043-4.753,25.939c0.026,9.094,1.349,18.348,2.536,26.523
							C431.164,297.597,432.809,308.91,436.646,319.464z"/>
					</g>
				</g>
				<g>
					<g>
						<g>
							<path style="fill:#FBC6B4;" d="M418.222,174.284c0,0-1.637-4.112-5.166-5.216c-3.17-0.984-1.076,2.98,2.224,7.093
								L418.222,174.284z"/>
						</g>
					</g>
					<g>
						<g>
							<path style="fill:#C40C53;" d="M454.064,196.161c2.575,1.436,2.713,4.022,0.165,7.112c-3.907,4.742-8.784,1.895-18.109-2.28
								c-10.6-4.745-21.436-25.226-21.436-25.226s0.527-2.673,3.169-2.249c0,0,8.193,10.867,18.656,15.687
								C441.646,191.581,448.646,193.134,454.064,196.161z"/>
						</g>
					</g>
				</g>
				<g>
					<g>
						<g>
							<path style="fill:#FF2363;" d="M437.444,193.507c-4.801,3.665-8.891,12.598-10.802,41.826
								c-0.416,6.425,36.857,7.973,36.999,1.526c0.326-17.146-2.604-24.192-7.502-39.656
								C454.791,193.005,446.939,186.186,437.444,193.507z"/>
						</g>
					</g>
				</g>
				<g>
					<g>
						<g>
							<path style="fill:#FBC6B4;" d="M403.77,181.122c0,0,1.265-9.373-0.897-6.849c-2.162,2.517-4.458,2.925-2.461,7.816
								L403.77,181.122z"/>
						</g>
					</g>
					<g>
						<g>
							<path style="fill:#C40C53;" d="M440.172,196.865c3.814,5.316,1.349,9.455-1.976,11.693
								c-5.094,3.437-14.184,7.788-24.866,3.259c-10.701-4.521-13.375-30.282-13.375-30.282s1.266-2.411,3.676-1.25
								c0,0,5.607,19.321,15.865,21.132C424.457,202.292,436.544,191.824,440.172,196.865z"/>
						</g>
					</g>
				</g>
				<g>
					<path style="fill:#EE9D7F;" d="M447.457,186.1c0,0,1.756,7.406,0.309,9.14c-1.455,1.743-9.177-0.023-8.808-2.787
						c0.479-3.679,1.462-6.794,1.462-6.794L447.457,186.1z"/>
				</g>
				<g>
					<path style="fill:#FBC6B4;" d="M451.791,178.465c0,6.521-3.649,11.811-8.145,11.811c-2.023,0-6.513,0.554-7.936-1.204
						c-1.75-2.166-1.762-7.719-0.754-11.173c2.318-7.967,5.696-10.592,10.194-10.592
						C449.648,167.308,451.791,171.945,451.791,178.465z"/>
				</g>
				<g>
					<path style="fill:#1B2044;" d="M444.085,191.026c2.822,0.153,7.557-0.828,10.176-6.633c2.391-5.308,1.013-14.154-4.338-16.866
						c-3.173-1.612-7.502-1.877-10.98-0.22c-4.923,2.342-4.286,5.33-3.291,5.825c2.071,1.016,3.699-0.605,3.291,2.226
						c-0.315,2.186-0.149,6.999,1.879,7.289c2.029,0.291,3.751,0.303,3.264,3.239C443.715,188.113,441.231,190.881,444.085,191.026z
						"/>
				</g>
			</g>
			<path style="fill:#1B2044;" d="M427.965,237.397c0,0,29.048,7.458,35.677-0.538l1.534,5.638
				C465.176,242.497,447.347,249.271,427.965,237.397z"/>
		</g>
		<g>
			<g>
				<g>
					<g>
						<path style="fill:#FBC6B4;" d="M548.46,314.842c4.14,7.855,11.764,17.466,13.685,23.145c0.304,0.905,0.279,1.276-2.473,2.863
							c-2.759,1.579,0.495,2.632,5.591,1.352c5.097-1.28-3.565-25.166-8.82-36.083C551.857,296.579,543.658,305.719,548.46,314.842z
							"/>
					</g>
				</g>
				<g>
					<path style="fill:#1B416D;" d="M566.883,339.23c0,0-4.027,2.959-7.21,1.619c0,0-4.865,1.882-1.403,2.517
						C561.739,343.988,568.087,343.744,566.883,339.23z"/>
				</g>
			</g>
			<g>
				<path style="fill:#FFB502;" d="M571.35,280.597c0,0-27.021,1.42-33.17,7.417c-6.141,6.001,20.991,48.948,20.991,48.948
					s6.883-2.206,6.898-7.422c0.071-19.551-0.271-26.003-0.271-26.003l27.547-6.185L571.35,280.597z"/>
			</g>
			<g>
				<g>
					<g>
						<path style="fill:#FBC6B4;" d="M605.914,331.31c9.268-1.14,21.565-5.071,27.857-4.845c0.996,0.036,1.363,0.199,1.898,3.497
							c0.518,3.303,2.767,0.483,3.404-5c0.63-5.487-26.079-5.85-38.768-4.741C589.213,321.183,595.155,332.646,605.914,331.31z"/>
					</g>
				</g>
				<g>
					<path style="fill:#1B416D;" d="M636.746,322.271c0,0,1.411,5.052-1.076,7.691c0,0,0.039,5.479,1.945,2.317
						C639.521,329.094,641.651,322.762,636.746,322.271z"/>
				</g>
			</g>
			<g>
				<path style="fill:#FFCF03;" d="M580.354,288.902c0,0-8.264,34.274-4.65,42.548c3.621,8.271,55.947-2.443,55.947-2.443
					s0.391-7.585-4.738-9.539c-19.195-7.342-25.856-6.508-25.856-6.508l2.512-29.584L580.354,288.902z"/>
			</g>
			<g>
				<g>
					<path style="fill:#FFFFFF;" d="M565.534,289.505c6.716-2.13,7.314-8.781,7.314-8.837l-0.885-0.071
						c-0.024,0.247-0.566,6.108-6.707,8.063L565.534,289.505z"/>
				</g>
			</g>
			<g>
				<g>
					<path style="fill:#FFFFFF;" d="M600.785,302.066l0.271-0.851c-6.156-1.953-6.691-7.994-6.699-8.066l-0.893,0.072
						C593.472,293.293,594.07,299.936,600.785,302.066z"/>
				</g>
			</g>
			<g>
				<g>
					<path style="fill:#FBC6B4;" d="M594.558,251.383c-0.606-1.339-3.613-4.51-7.633-3.465c-5.384,1.392-13.693,9.088-21.078,7.03
						c-7.41-2.065-8.662-7.091-9.962-10.344c-1.284-3.254-0.271-5.152-1.228-6.962c-0.965-1.823-3.069-0.583-2.256,5.136
						c0.391,2.735,0.693,16.469,9.043,20.552C572.394,268.685,598.026,259.318,594.558,251.383z"/>
				</g>
				<g>
					<path style="fill:#C40C53;" d="M594.014,248.544c0,0,3.502,4.984-3.771,10.392c-7.266,5.399-11.173,6.759-11.173,6.759
						s-4.786-3.505-7.202-12.485C571.867,253.209,590.115,240.828,594.014,248.544z"/>
				</g>
			</g>
			<g>
				<g>
					<path style="fill:#FF2363;" d="M609.31,252.148l-0.007-0.027c-2.489-2.413-6.142-3.816-8.941-4.925
						c-6.156-2.445-16.764-4.45-21.852,6.109c-1.667,3.484-3.357,8.788-4.554,14.352c-0.279,1.211-0.542,2.439-0.726,3.68
						c-0.989,5.48-3.604,8.622-2.465,11.88c2.887,8.233,29.166,22.885,34.317,5.387c0.766-2.612,2.816-19.248,4.507-22.378
						C613.41,259.279,612.19,255.02,609.31,252.148z"/>
				</g>
			</g>
			<g>
				<g>
					<path style="fill:#EE9D7F;" d="M601.057,239.173c0,0-3.302,4.371-0.431,7.687c2.951,3.406-12.226,7.774-11.277,5.001
						c1.196-3.572,3.533-5.359,2.632-9.949L601.057,239.173z"/>
				</g>
				<g>
					<path style="fill:#FBC6B4;" d="M595.268,228.314c-3.758,2.285-9.835,14.507-7.154,18.052c1.172,1.539,7.345,1.377,12.258-3.532
						c2.025-1.994,4.841-5.981,3.405-10.875C603.123,229.738,599.613,225.659,595.268,228.314z"/>
				</g>
				<g>
					<path style="fill:#1B2044;" d="M591.749,229.196c-1.028,1.487-0.908,1.897,3.821,3.669c4.729,1.785,5.63,1.626,4.889,2.688
						c-2.178,3.117,1.442,3.174-1.204,6.878c-2.641,3.709,1.977,2.098,4.49-0.865c0.485-0.602,3.237-3.445,1.93-9.023
						C604.159,226.033,595.561,223.781,591.749,229.196z"/>
				</g>
			</g>
			<g>

					<rect x="570.695" y="224.568" transform="matrix(0.6835 -0.7299 0.7299 0.6835 -14.8934 506.8714)" style="fill:#1B2044;" width="12.799" height="92.086"/>
				<path style="fill:#1B2044;" d="M522.74,227.258l16.979,15.898l7.529-8.035l-17.067-15.974c7.17-4.299,16.581-3.55,22.984,2.443
					c7.745,7.251,8.151,19.404,0.894,27.148c-7.249,7.744-19.404,8.144-27.148,0.889
					C520.627,243.743,519.183,234.619,522.74,227.258z"/>
			</g>
			<g>
				<g>
					<path style="fill:#FBC6B4;" d="M609.758,253.177c-1.141-0.805-4.355-1.475-7.099,1.381c-3.685,3.819-6.604,14.22-13.637,16.221
						c-7.059,2.01-10.584-1.442-13.256-3.445c-2.671-2.005-2.799-4.051-4.481-5.047c-1.691-1.002-2.775,1.06,0.733,5.299
						c1.683,2.029,8.773,13.052,17.602,12.21C601.185,278.698,616.544,257.887,609.758,253.177z"/>
				</g>
				<g>
					<path style="fill:#C40C53;" d="M608.849,252.181c0,0,5.327,2.321,2.113,10.344c-3.222,8.015-5.719,11.063-5.719,11.063
						s-5.645-0.464-12.082-6.564C593.161,267.022,601.822,247.857,608.849,252.181z"/>
				</g>
			</g>
		</g>
		<g>
			<rect x="185.617" y="170.043" style="fill:#FFCF03;" width="92.987" height="106.187"/>
			<rect x="185.617" y="170.043" style="fill:#FFB502;" width="92.987" height="8.6"/>
			<path style="fill:#FFFFFF;" d="M271.085,174.656c0,1.1,0.8,1.993,1.783,1.993c0.986,0,1.78-0.894,1.78-1.993
				c0-1.101-0.793-1.993-1.78-1.993C271.885,172.663,271.085,173.556,271.085,174.656z"/>
			<path style="fill:#FFFFFF;" d="M265.739,174.656c0,1.1,0.796,1.993,1.78,1.993c0.987,0,1.783-0.894,1.783-1.993
				c0-1.101-0.796-1.993-1.783-1.993C266.535,172.663,265.739,173.556,265.739,174.656z"/>
			<path style="fill:#FFFFFF;" d="M260.393,174.656c0,1.1,0.79,1.993,1.776,1.993c0.99,0,1.79-0.894,1.79-1.993
				c0-1.101-0.8-1.993-1.79-1.993C261.183,172.663,260.393,173.556,260.393,174.656z"/>
			<rect x="196.292" y="208.112" style="fill:#FFB502;" width="73.037" height="5.656"/>
			<rect x="196.292" y="189.821" style="fill:#FFB502;" width="73.037" height="16.252"/>
			<rect x="196.292" y="216.173" style="fill:#FFB502;" width="73.037" height="5.652"/>
			<rect x="196.292" y="224.225" style="fill:#FFB502;" width="73.037" height="5.656"/>
			<rect x="196.292" y="232.897" style="fill:#FFB502;" width="73.037" height="15.758"/>
			<rect x="196.292" y="253.415" style="fill:#FFB502;" width="73.037" height="15.756"/>
		</g>
		<g>
			<g>
				<path style="fill:#FF2363;" d="M232.003,302.422h-17.152v11.07h19.161v8.645h-29.748v-46.63h28.788v8.652h-18.2v9.688h17.152
					V302.422z"/>
				<path style="fill:#FF2363;" d="M242.126,276.132c3.384-0.555,8.443-0.972,14.037-0.972c6.925,0,11.772,1.04,15.073,3.668
					c2.789,2.212,4.3,5.471,4.3,9.749c0,5.957-4.213,10.035-8.229,11.49v0.204c3.258,1.318,5.047,4.43,6.227,8.716
					c1.452,5.267,2.903,11.352,3.804,13.149h-10.795c-0.769-1.313-1.86-5.116-3.241-10.859c-1.25-5.813-3.253-7.403-7.553-7.477
					h-3.165v18.337h-10.456V276.132z M252.583,296.189h4.142c5.244,0,8.366-2.627,8.366-6.71c0-4.281-2.903-6.431-7.755-6.501
					c-2.543,0-4.011,0.209-4.753,0.35V296.189z"/>
				<path style="fill:#FF2363;" d="M284.071,276.132c3.395-0.555,8.437-0.972,14.042-0.972c6.919,0,11.766,1.04,15.078,3.668
					c2.767,2.212,4.3,5.471,4.3,9.749c0,5.957-4.224,10.035-8.235,11.49v0.204c3.253,1.318,5.053,4.43,6.226,8.716
					c1.452,5.267,2.909,11.352,3.81,13.149h-10.806c-0.758-1.313-1.86-5.116-3.252-10.859c-1.233-5.813-3.242-7.403-7.536-7.477
					h-3.182v18.337h-10.445V276.132z M294.516,296.189h4.153c5.256,0,8.377-2.627,8.377-6.71c0-4.281-2.919-6.431-7.755-6.501
					c-2.554,0-4.006,0.209-4.775,0.35V296.189z"/>
				<path style="fill:#FF2363;" d="M368.43,298.335c0,15.286-9.271,24.565-22.909,24.565c-13.84,0-21.927-10.45-21.927-23.728
					c0-13.975,8.928-24.427,22.696-24.427C360.609,274.746,368.43,285.472,368.43,298.335z M334.731,298.96
					c0,9.135,4.295,15.561,11.357,15.561c7.117,0,11.188-6.778,11.188-15.835c0-8.374-4-15.569-11.275-15.569
					C338.884,283.117,334.731,289.901,334.731,298.96z"/>
				<path style="fill:#FF2363;" d="M376.277,276.132c3.384-0.555,8.438-0.972,14.02-0.972c6.932,0,11.777,1.04,15.09,3.668
					c2.772,2.212,4.301,5.471,4.301,9.749c0,5.957-4.225,10.035-8.235,11.49v0.204c3.253,1.318,5.037,4.43,6.228,8.716
					c1.445,5.267,2.897,11.352,3.809,13.149h-10.806c-0.759-1.313-1.86-5.116-3.236-10.859c-1.249-5.813-3.257-7.403-7.553-7.477
					h-3.171v18.337h-10.445V276.132z M386.723,296.189h4.143c5.256,0,8.366-2.627,8.366-6.71c0-4.281-2.909-6.431-7.761-6.501
					c-2.537,0-4.006,0.209-4.748,0.35V296.189z"/>
			</g>
		</g>
		<g>
			<g>
				<g>
					<path style="fill:#FBC6B4;" d="M157.208,201.576c0.976-1.266,5.006-3.86,9.006-1.707c5.353,2.876,12.198,13.205,20.581,12.929
						c8.415-0.28,11.045-5.291,13.268-8.41c2.207-3.131,1.622-5.415,3.115-7.087c1.5-1.686,3.407,0.172,1.061,6.04
						c-1.115,2.809-4.999,17.334-14.936,19.51C176.297,225.708,151.454,209.113,157.208,201.576z"/>
				</g>
				<g>
					<path style="fill:#EDA503;" d="M158.507,198.696c0,0-4.999,4.388,1.316,12.018c6.33,7.634,10.137,10.088,10.137,10.088
						s5.991-2.493,10.883-11.407C180.843,209.395,164.668,191.504,158.507,198.696z"/>
				</g>
			</g>
			<g>
				<path style="fill:#FFB502;" d="M138.233,213.963c3.715,13.725,1.669,23.371,0,28.597c3.877,1.246,1.569,3.318,1.469,3.584
					c-5.484,11.368,28.565,4.635,34.549-4.568c2.053-3.169,0.085-7.188,0.454-13.26c0.131-1.368,0.169-2.753,0.185-4.107
					c0.169-6.222-0.254-12.298-1.131-16.433c-2.669-12.54-14.468-13.156-21.644-12.156c-3.261,0.454-7.515,1.008-10.776,2.928
					l-0.022,0.022C137.51,200.873,135.48,203.757,138.233,213.963z"/>
			</g>
			<g>
				<g>
					<path style="fill:#FBC6B4;" d="M151.508,186.529c0,0,3.215,5.056-0.208,8.429c-3.516,3.45,12.652,9.549,11.876,6.442
						c-1-4.013-3.393-6.154-2.015-11.084L151.508,186.529z"/>
				</g>
				<g>
					<path style="fill:#FBC6B4;" d="M158.776,175.195c3.892,2.815,9.445,16.679,6.23,20.313c-1.43,1.576-8.145,0.857-13.075-4.915
						c-2.031-2.36-4.746-6.953-2.762-12.167C150.085,176.061,154.27,171.922,158.776,175.195z"/>
				</g>
				<g>
					<path style="fill:#1B2044;" d="M162.53,176.472c0.993,1.704,0.831,2.142-4.484,3.665c-5.299,1.522-6.283,1.281-5.576,2.496
						c2.115,3.595-1.846,3.345,0.723,7.61c2.554,4.275-2.346,2.116-4.814-1.334c-0.484-0.696-3.239-4.042-1.323-10.007
						C149.27,171.938,158.846,170.23,162.53,176.472z"/>
				</g>
			</g>
			<g>
				<g>
					<path style="fill:#FBC6B4;" d="M129.442,294.856c-3.407,13.341-7.407,41.822-0.854,41.987
						c6.538,0.147,10.199-1.834,6.423-2.892c-3.769-1.065-3.923-1.477-3.808-2.539c1.623-13.755,23.136-35.206,24.959-51.554
						c0.615-5.588,1.039-10.695,1.33-15.176c2.446,11.979,0.646,24.689,0.862,28.889c0.685,14.952,3.884,43.214,11.053,43.271
						c7.63,0.047,11.375-2.061,6.499-3.068c-4.215-0.896-4.038-1.089-3.962-2.135c1.023-15.094,8.346-42.998,9.746-60.931
						C183.319,250.009,132.411,283.196,129.442,294.856z"/>
				</g>
				<g>
					<path style="fill:#15122C;" d="M165.384,333.445c0,0,5.691,2.257,9.206,0c0,0,6.414,0.864,2.392,2.422
						C172.929,337.433,165.145,338.724,165.384,333.445z"/>
				</g>
				<g>
					<path style="fill:#15122C;" d="M125.804,333.952c0,0,5.699,2.246,9.207,0c0,0,6.422,0.877,2.376,2.427
						C133.349,337.944,125.565,339.244,125.804,333.952z"/>
				</g>
				<g>
					<g>
						<path style="fill:#1B2044;" d="M176.628,235.546c-13.044,8.702-31.289,7.813-38.396,6.438
							c-1.923,15.521-13.583,73.748-14.898,81.739c5.729,1.903,7.638,2.3,9.291,2.3c27.658-35.661,24.481-50.959,24.766-55.442
							c1.046,5.183-2.369,30.558,3.607,55.442c1.999,1.291,8.061,2.973,12.398,0c0.223-1.592,8.338-30.173,8.161-52.547
							C181.435,258.224,178.889,247.751,176.628,235.546z"/>
					</g>
				</g>
			</g>
			<g>
				<g>
					<path style="fill:#FFFFFF;" d="M139.148,255.131c8.114-2.576,8.822-10.595,8.83-10.671l-1.077-0.081
						c-0.016,0.293-0.677,7.376-8.083,9.729L139.148,255.131z"/>
				</g>
			</g>
			<g>
				<g>
					<path style="fill:#FFFFFF;" d="M177.113,253.132l0.331-1.031c-7.43-2.345-8.084-9.648-8.084-9.725l-1.084,0.081
						C168.283,242.544,168.999,250.563,177.113,253.132z"/>
				</g>
			</g>
			<g>
				<g>
					<path style="fill:#264D86;" d="M256.341,197.5L66.473,264.042c-4.777,1.668-7.345,6.699-5.761,11.229l5.338,15.225
						l207.15-72.59l-5.337-15.23C266.278,198.143,261.125,195.823,256.341,197.5z"/>
				</g>
				<g>
					<path style="fill:#CCDDFC;" d="M99.276,265.699c-0.992-2.822,0.615-5.957,3.568-6.996c2.954-1.033,6.168,0.416,7.161,3.235
						c0.984,2.818-0.615,5.953-3.584,6.987C103.468,269.968,100.261,268.515,99.276,265.699z M100.661,265.21
						c0.722,2.05,3.091,3.102,5.276,2.336c2.2-0.771,3.408-3.073,2.692-5.123c-0.723-2.054-3.107-3.099-5.299-2.335
						C101.138,260.857,99.945,263.153,100.661,265.21z"/>
				</g>
				<g>
					<path style="fill:#CCDDFC;" d="M85.117,270.656c-0.993-2.815,0.615-5.953,3.568-6.991c2.946-1.034,6.153,0.422,7.153,3.237
						c0.985,2.82-0.615,5.953-3.576,6.989C89.316,274.925,86.109,273.478,85.117,270.656z M86.501,270.172
						c0.73,2.054,3.084,3.104,5.284,2.335c2.184-0.762,3.384-3.069,2.661-5.119c-0.715-2.055-3.091-3.1-5.283-2.339
						C86.978,265.822,85.786,268.117,86.501,270.172z"/>
				</g>
				<g>
					<path style="fill:#CCDDFC;" d="M71.38,275.475c-0.985-2.818,0.615-5.96,3.554-6.984c2.961-1.038,6.161,0.416,7.145,3.231
						c0.984,2.819-0.6,5.95-3.554,6.988C75.571,279.744,72.365,278.29,71.38,275.475z M72.764,274.994
						c0.716,2.05,3.084,3.096,5.276,2.331c2.184-0.775,3.384-3.065,2.662-5.119c-0.723-2.05-3.084-3.106-5.284-2.334
						C73.233,270.638,72.049,272.934,72.764,274.994z"/>
				</g>
			</g>
			<g>
				<g>
					<path style="fill:#FBC6B4;" d="M143.571,199.772c1.461,0.469,4.153,2.847,3.461,7.126c-0.915,5.727-8.091,15.121-5.23,22.59
						c2.884,7.487,8.229,8.3,11.729,9.329c3.515,1.021,5.384-0.219,7.36,0.597c1.985,0.827,0.908,3.139-5.114,2.851
						c-2.884-0.139-17.182,0.899-22.251-7.373C126.889,224.055,134.987,196.941,143.571,199.772z"/>
				</g>
				<g>
					<path style="fill:#EDA503;" d="M143.486,197.52c0,0-3.976-0.746-8.876,7.357c-4.899,8.074-5.922,12.27-5.922,12.27
						s4.122,4.623,13.683,6.257C142.371,223.404,153.146,202.253,143.486,197.52z"/>
				</g>
			</g>
		</g>
		<g>
			<g>
				<path style="fill:#FF2363;" d="M200.27,93.028c0-15.2,17.135-27.519,38.264-27.519c21.125,0,40.662,17.009,40.662,32.206
					c0,14.912-18.904,22.353-39.482,22.807c0.598,8.492,12.039,12.518,12.039,12.518C228.727,135.249,200.27,117.581,200.27,93.028z
					"/>
			</g>
			<g>
				<path style="fill:#FFFFFF;" d="M227.096,92.985c0,2.822-2.002,4.12-4.069,4.12c-2.257,0-3.995-1.486-3.995-3.983
					c0-2.495,1.644-4.084,4.121-4.084C225.519,89.038,227.096,90.661,227.096,92.985z M221.512,93.063
					c0,1.321,0.552,2.311,1.577,2.311c0.929,0,1.53-0.927,1.53-2.311c0-1.155-0.44-2.324-1.53-2.324
					C221.938,90.739,221.512,91.923,221.512,93.063z"/>
				<path style="fill:#FFFFFF;" d="M236.143,92.985c0,2.822-2.006,4.12-4.073,4.12c-2.257,0-3.991-1.486-3.991-3.983
					c0-2.495,1.641-4.084,4.117-4.084C234.565,89.038,236.143,90.661,236.143,92.985z M230.559,93.063
					c0,1.321,0.552,2.311,1.574,2.311c0.936,0,1.533-0.927,1.533-2.311c0-1.155-0.44-2.324-1.533-2.324
					C230.984,90.739,230.559,91.923,230.559,93.063z"/>
				<path style="fill:#FFFFFF;" d="M237.519,91.797c0-1.014-0.035-1.878-0.067-2.587h2.084l0.114,1.07h0.027
					c0.566-0.818,1.455-1.242,2.571-1.242c1.687,0,3.205,1.466,3.205,3.928c0,2.81-1.781,4.14-3.507,4.14
					c-0.929,0-1.655-0.386-2.003-0.889h-0.034v3.837h-2.391V91.797z M239.909,93.613c0,0.19,0.016,0.363,0.048,0.505
					c0.16,0.647,0.715,1.135,1.406,1.135c1.047,0,1.66-0.868,1.66-2.174c0-1.234-0.555-2.163-1.629-2.163
					c-0.676,0-1.277,0.505-1.438,1.216c-0.032,0.121-0.048,0.279-0.048,0.425V93.613z"/>
				<path style="fill:#FFFFFF;" d="M246.825,94.829c0.444,0.268,1.356,0.583,2.071,0.583c0.725,0,1.027-0.249,1.027-0.646
					c0-0.397-0.24-0.586-1.141-0.884c-1.592-0.535-2.206-1.404-2.19-2.32c0-1.439,1.234-2.523,3.138-2.523
					c0.904,0,1.707,0.203,2.178,0.442l-0.424,1.651c-0.351-0.184-1.011-0.436-1.672-0.436c-0.585,0-0.916,0.236-0.916,0.626
					c0,0.365,0.299,0.554,1.251,0.884c1.462,0.503,2.076,1.247,2.092,2.386c0,1.435-1.136,2.498-3.343,2.498
					c-1.01,0-1.91-0.229-2.492-0.538L246.825,94.829z"/>
			</g>
		</g>
		<g>
			<g>
				<path style="fill:#FF2363;" d="M515.073,191.39l49.207-85.233c2.42-4.186,8.461-4.186,10.881,0l49.207,85.233
					c2.424,4.188-0.604,9.422-5.438,9.422h-98.418C515.677,200.811,512.649,195.578,515.073,191.39L515.073,191.39z"/>
			</g>
			<g>
				<path style="fill:#FFFFFF;" d="M527.477,185.335l38.039-65.88c1.868-3.237,6.542-3.237,8.41,0l38.039,65.88
					c1.869,3.237-0.47,7.283-4.207,7.283h-76.074C527.942,192.618,525.607,188.572,527.477,185.335L527.477,185.335z"/>
			</g>
			<g>
				<path style="fill:#FF2363;" d="M564.528,176.257c0-2.943,2.052-5.058,5.002-5.058c2.945,0,4.891,2.114,4.946,5.058
					c0,2.893-1.95,5.058-4.946,5.058C566.529,181.314,564.528,179.149,564.528,176.257z M566.367,168.42l-1.283-25.179h8.837
					l-1.223,25.179H566.367z"/>
			</g>
		</g>
	</g>
</g>
</svg>