<?xml version="1.0" encoding="utf-8"?>
<!-- Generator: Adobe Illustrator 27.5.0, SVG Export Plug-In . SVG Version: 6.00 Build 0)  -->
<svg version="1.1" xmlns="http://www.w3.org/2000/svg" xmlns:xlink="http://www.w3.org/1999/xlink"
	x="0px" y="0px"
	viewBox="0 0 500 500" style="enable-background:new 0 0 500 500;" xml:space="preserve">
<g id="Background">
	<g>
		<path style="fill:#8CC541;" d="M500,383.531V500H236.437c4.002-10.14,9.98-19.65,16.377-27.85
			c14.88-19.06,35.05-35.52,59.561-39.15c28.952-4.29,56.587,4.58,85.05,8.1c10.07,1.24,20.998,2.31,30.878-0.71
			c7.395-2.25,13.363-6.76,18.713-12.24c14.681-15.04,26.617-32.86,46.287-41.94C495.519,385.181,497.754,384.291,500,383.531z"/>
		<path style="fill:#FFFFFF;" d="M485.482,456.374c-12.231,10.162-26.58,15.47-42.227,17.636
			c-11.33,1.568-22.883,1.357-34.254,2.673c-11.051,1.279-22.344,3.628-32.751,7.663c-8.652,3.355-15.263,9.144-21.308,15.654H500
			v-58.875C495.624,446.68,490.874,451.894,485.482,456.374z"/>
		<path style="fill:#8CC541;" d="M396.297,80.821c-9.95,36.15-33.463,68.12-64.611,88.84c-18.264,12.15-39.102,20.75-60.858,23.89
			c-13.144,1.89-26.657,2.54-39.501,6.16c-11.966,3.36-25.07,9.76-32.116,20.5c-6.367,9.71-9.042,20.98-12.315,31.97
			c-3.483,11.69-8.523,22.73-15.15,32.98c-12.695,19.66-29.83,35.76-49.321,48.57c-10.01,6.58-20.469,12.42-31.208,17.71
			c-9.95,4.9-20.709,8.69-30.16,14.53c-14.451,8.93-24.87,22.19-35.15,35.44c-7.485,9.65-15.379,19.73-25.908,26.1V0.001h393.234
			C402.285,25.791,403.713,53.891,396.297,80.821z"/>
		<path style="fill:#479B45;" d="M500,0.001v383.53c-2.246,0.76-4.481,1.65-6.697,2.68c-19.671,9.08-31.607,26.9-46.287,41.94
			c-5.349,5.48-11.317,9.99-18.713,12.24c-9.88,3.02-20.808,1.95-30.878,0.71c-28.463-3.52-56.098-12.39-85.05-8.1
			c-24.511,3.63-44.681,20.09-59.561,39.15c-6.397,8.2-12.375,17.71-16.377,27.85H0v-72.49c10.529-6.37,18.423-16.45,25.908-26.1
			c10.279-13.25,20.699-26.51,35.15-35.44c9.451-5.84,20.21-9.63,30.16-14.53c10.739-5.29,21.198-11.13,31.208-17.71
			c19.491-12.81,36.627-28.91,49.321-48.57c6.627-10.25,11.667-21.29,15.15-32.98c3.273-10.99,5.948-22.26,12.315-31.97
			c7.046-10.74,20.15-17.14,32.116-20.5c12.844-3.62,26.357-4.27,39.501-6.16c21.756-3.14,42.595-11.74,60.858-23.89
			c31.148-20.72,54.661-52.69,64.611-88.84c7.415-26.93,5.988-55.03-3.064-80.82H500z"/>
		<path style="fill:#FFFFFF;" d="M41.965,133.664c21.921-12.49,30.259-36.526,40.056-58.325c3.741-8.323,8.248-17.903,15.624-23.678
			c6.193-4.849,13.309-6.775,21.07-7.372c12.754-0.981,25.577,0.048,38.334-1.053c13.199-1.139,26.3-4.329,38.004-10.698
			C207.727,25.641,222.51,14.209,227.805,0H0.002v143.464C14.621,143.113,28.992,141.056,41.965,133.664z"/>
	</g>
</g>
<g id="Objects">
	<g>
		<path style="fill:#007733;" d="M464.403,413.173H35.597c-1.771,0-3.207-1.436-3.207-3.207l0,0c0-1.771,1.436-3.207,3.207-3.207
			h428.806c1.771,0,3.207,1.436,3.207,3.207l0,0C467.61,411.737,466.174,413.173,464.403,413.173z"/>
		<g>
			<polygon style="fill:#FFFFFF;" points="434.275,168.922 446.775,160.705 449.525,166.205 435.4,170.33 			"/>
			<polygon style="fill:#FFFFFF;" points="431.07,164.518 433.15,166.393 448.65,151.768 442.65,147.643 			"/>
		</g>
		<g>
			<g>
				<g>
					<circle style="fill:#FFFFFF;" cx="308.843" cy="127.522" r="32.199"/>
					<path style="fill:#FFFFFF;" d="M308.843,86.827c-22.476,0-40.696,18.22-40.696,40.696c0,22.476,18.22,40.696,40.696,40.696
						s40.696-18.22,40.696-40.696C349.538,105.047,331.318,86.827,308.843,86.827z M308.843,163.921
						c-20.102,0-36.399-16.296-36.399-36.399c0-20.102,16.296-36.399,36.399-36.399c20.102,0,36.399,16.296,36.399,36.399
						C345.241,147.625,328.945,163.921,308.843,163.921z"/>
					<g>
						<circle style="fill:#479B45;" cx="308.843" cy="127.522" r="5.888"/>
					</g>
					<g>
						<path style="fill:#479B45;" d="M308.843,128.864c-0.741,0-1.342-0.601-1.342-1.342V99.945c0-0.741,0.601-1.342,1.342-1.342
							s1.342,0.601,1.342,1.342v27.577C310.184,128.263,309.583,128.864,308.843,128.864z"/>
					</g>
					<g>
						<path style="fill:#479B45;" d="M322.167,147.529l-14.398-19.201c-0.444-0.593-0.324-1.434,0.269-1.878
							c0.593-0.444,1.434-0.324,1.878,0.269l14.398,19.201c0.444,0.593,0.324,1.434-0.269,1.878
							C323.453,148.241,322.611,148.121,322.167,147.529z"/>
					</g>
				</g>
			</g>
			<g>
				<g>
					<rect x="159.119" y="241.342" style="fill:#D0D2D3;" width="32.809" height="24.068"/>
					<path style="opacity:0.36;fill:#061A2D;" d="M191.132,253.648c0.265,0.069,0.531,0.13,0.796,0.198v-12.504h-32.809v3.286
						C169.773,247.695,180.401,250.86,191.132,253.648z"/>
				</g>
				<rect x="108.3" y="156.828" style="fill:#D0D2D3;" width="134.447" height="84.514"/>
				<rect x="112.357" y="160.138" style="fill:#09152C;" width="127.938" height="68.425"/>
				<g>
					<rect x="223.964" y="151.087" style="fill:#FFFFFF;" width="6.258" height="64.311"/>
					<rect x="211.854" y="160.291" style="fill:#FFFFFF;" width="6.258" height="55.107"/>
					<rect x="199.743" y="170.726" style="fill:#FFFFFF;" width="6.258" height="44.672"/>
					<rect x="187.633" y="182.109" style="fill:#FFFFFF;" width="6.258" height="33.288"/>
					<rect x="175.523" y="191.797" style="fill:#FFFFFF;" width="6.258" height="23.6"/>
				</g>
				<path style="fill:#FFFFFF;" d="M151.883,205.333c0,6.344-5.135,11.49-11.49,11.49c-6.344,0-11.49-5.146-11.49-11.49
					s5.146-11.49,11.49-11.49v11.49H151.883z"/>
				<g>
					<path style="fill:#FFFFFF;" d="M154.325,202.932h-11.531v-11.531h0.491c6.087,0,11.04,4.952,11.04,11.04V202.932z
						 M143.776,201.95h9.555c-0.249-5.156-4.399-9.306-9.555-9.556V201.95z"/>
				</g>
			</g>
			<g>
				<g>
					<g>
						<g>
							<path style="fill:#FFF8B5;" d="M74.428,323.248c-9.327-27.718-10.442-58.004-3.373-86.372
								c1.992-7.995,4.625-15.832,7.898-23.394c0.58-1.341-1.396-2.511-1.981-1.158c-5.901,13.636-9.79,28.047-11.609,42.792
								c-1.815,14.704-1.53,29.641,0.815,44.269c1.332,8.309,3.355,16.497,6.039,24.472
								C72.684,325.25,74.901,324.653,74.428,323.248L74.428,323.248z"/>
						</g>
					</g>
					<g>
						<g>
							<g>
								<path style="fill:#FFF8B5;" d="M70.204,315.818l-23.103-16.658c-3.907-2.817-5.263-7.915-2.746-10.326l0,0
									c2.517-2.411,7.551-0.838,10.198,3.187L70.204,315.818z"/>
							</g>
						</g>
					</g>
					<g>
						<g>
							<g>
								<path style="fill:#FFF8B5;" d="M69.227,315.501l8.861-26.075c1.499-4.41,5.915-7.032,8.947-5.313l0,0
									c3.031,1.72,3.046,6.857,0.029,10.405L69.227,315.501z"/>
							</g>
						</g>
					</g>
					<g>
						<g>
							<g>
								<path style="fill:#FFF8B5;" d="M67.394,297.463l-18.001-18.909c-3.044-3.198-3.137-8.126-0.187-9.983l0,0
									c2.949-1.857,7.353,0.358,8.921,4.485L67.394,297.463z"/>
							</g>
						</g>
					</g>
					<g>
						<g>
							<g>
								<path style="fill:#FFF8B5;" d="M69.143,290.664l5.916-26.683c1-4.513,5.095-7.564,8.294-6.181h0
									c3.199,1.383,3.781,6.457,1.178,10.276L69.143,290.664z"/>
							</g>
						</g>
					</g>
					<g>
						<g>
							<g>
								<path style="fill:#FFF8B5;" d="M65.722,266.41c-6.629-7.462-11.653-16.866-14.281-27.309
									c-0.649-2.656-0.301-5.39,0.72-7.326c1.016-1.949,2.623-3.089,4.349-2.955h0c1.748,0.135,3.159,1.42,4.077,3.146
									c0.914,1.74,1.394,3.933,1.136,6.248C60.784,247.353,62.022,257.141,65.722,266.41z"/>
							</g>
						</g>
					</g>
					<g>
						<g>
							<g>
								<path style="fill:#FFF8B5;" d="M66.892,263.93l7.452-24.334c1.26-4.115,5.469-6.495,8.525-4.82l0,0
									c3.056,1.675,3.315,6.503,0.525,9.779L66.892,263.93z"/>
							</g>
						</g>
					</g>
					<g>
						<g>
							<g>
								<path style="fill:#FFF8B5;" d="M68.317,238.308l-8.425-23.746c-1.425-4.016,0.553-8.388,4.007-8.856h0
									c3.454-0.468,6.524,3.22,6.219,7.47L68.317,238.308z"/>
							</g>
						</g>
					</g>
					<g>
						<g>
							<g>
								<path style="fill:#FFF8B5;" d="M71.477,236.349l10.483-18.295c1.773-3.094,5.947-3.751,8.455-1.331h0
									c2.508,2.42,2,6.615-1.029,8.497L71.477,236.349z"/>
							</g>
						</g>
					</g>
					<g>
						<g>
							<g>
								<path style="fill:#FFF8B5;" d="M77.031,217.616c0.128-8.542,1.818-17.35,5.129-25.849c0.851-2.153,2.497-3.796,4.264-4.54
									c1.77-0.754,3.616-0.632,4.965,0.46h0c1.36,1.1,1.899,2.828,1.791,4.579c-0.117,1.757-0.856,3.565-2.283,4.993
									C85.302,202.927,80.518,209.817,77.031,217.616z"/>
							</g>
						</g>
					</g>
					<polygon style="fill:#FFFFFF;" points="89.027,409.316 52.013,409.316 42.363,320.325 98.677,320.325 					"/>
					<path style="opacity:0.36;fill:#009345;" d="M62.326,387.418c-7.858-7.213-12.838-16.693-15.595-26.818l5.283,48.716h37.015
						l0.657-6.055C79.532,400.305,70.324,394.76,62.326,387.418z"/>
				</g>
			</g>
			<g>
				<g>
					<g>
						<polygon style="fill:#FFFFFF;" points="108.225,408.966 140.708,281.111 126.622,281.111 101.858,408.966 						"/>
						<polygon style="fill:#FFFFFF;" points="195.248,408.966 170.484,281.111 156.398,281.111 188.881,408.966 						"/>
					</g>
					<g style="opacity:0.36;">
						<polygon style="fill:#009345;" points="125.19,342.19 140.708,281.111 126.622,281.111 114.792,342.19 						"/>
						<polygon style="fill:#009345;" points="187.285,367.854 170.484,281.111 156.398,281.111 178.436,367.854 						"/>
					</g>
					<polygon style="fill:#FFFFFF;" points="194,408.966 226.483,281.111 212.397,281.111 187.633,408.966 					"/>
					<polygon style="fill:#FFFFFF;" points="281.024,408.966 256.26,281.111 242.174,281.111 274.657,408.966 					"/>
				</g>
				<rect x="106.851" y="263.93" style="fill:#FFFFFF;" width="166.06" height="18.073"/>
				<path style="opacity:0.36;fill:#009345;" d="M216.223,290.536c2.579,0.502,5.162,0.976,7.747,1.44l2.513-9.819h-14.086
					l-1.437,7.365C212.726,289.873,214.489,290.198,216.223,290.536z"/>
				<path style="opacity:0.36;fill:#009345;" d="M259.343,297.964l-3.083-15.806h-14.086l3.463,13.532
					C250.201,296.43,254.779,297.164,259.343,297.964z"/>
			</g>
			<g>
				<polyline style="fill:#FFFFFF;" points="457.637,409.316 418.5,285.521 405.527,285.521 452.82,409.316 				"/>
				<path style="opacity:0.36;fill:#009345;" d="M420.176,307.394c1.214-1.623,2.376-3.421,3.598-5.191l-5.274-16.681h-12.973
					l10.486,27.448C417.397,311.11,418.785,309.252,420.176,307.394z"/>
				<polygon style="fill:#FFFFFF;" points="390.217,309.25 418.509,409.316 423.325,409.316 401.757,309.25 				"/>
				<polygon style="fill:#FFFFFF;" points="358.33,309.25 336.762,409.316 341.579,409.316 369.87,309.25 				"/>
				<path style="fill:#F2C5BA;" d="M288.5,233.344c0,0-28.483,4.956-63.587,15.919c-0.655,0.205-1.672,2.843-1.212,5.872
					c0.436,2.867,2.18,4.587,2.706,5.071c2.14-0.302,1.827-1.457,6.017-1.718c5.652-0.352,16.607,1.724,22.912,2.543
					c12.609,1.639,18.416-2.164,25.011-3.416c6.595-1.252,19.425,1.024,19.425,1.024L288.5,233.344z"/>
				<path style="fill:#F2C5BA;" d="M315.83,253.837c0,0-15.23-16.262-25.32-20.289c-6.863-2.739-17.547,11.927-11.981,21.374
					c5.737,9.738,19.703,19.189,19.703,19.189L315.83,253.837z"/>
				<path style="fill:#F2C5BA;" d="M340.246,185.403c-0.218-3.708,2.29-7.017,5.919-7.81c7.443-1.626,21.484-3.781,42.037-3.197
					c13.787,0.391,6.615,6.225-7.414,10.882c-18.634,6.185-39.998,9.368-39.998,9.368L340.246,185.403z"/>
				<path style="fill:#F2C5BA;" d="M354.985,227.121c0,0-11.89-12.443-14.816-36.54c-2.927-24.097,18.883,4.048,25.938,23.642
					L354.985,227.121z"/>
				<path style="fill:#E36325;" d="M374.306,240.191c-4.417-1.421-5.738,3.311-12.148-1.185
					c-7.56-5.302-17.999-24.293-20.016-29.227c2.363-1.748,13.676-9.491,21.31-10.954l5.784,11.484l10.298,4.588
					C379.534,214.897,378.906,223.841,374.306,240.191z"/>
				<path style="fill:#E36325;" d="M377.731,214.63c10.364,1.47,17.35,3.492,26.677,8.103c4.073,2.014,8.131,4.239,11.481,7.248
					c3.914,3.516,5.261,6.521,5.816,11.543c1.09,9.861-0.834,19.94-5.504,28.822l-18.946,36.031l-48.05,2.874l-23.759-10.402
					l-8.976-18.35l0,0c5.82-16.029,18.087-28.942,33.879-35.376c6.768-2.758,4.13-3.154,7.57-10.083l16.365-18.934
					C374.284,216.104,375.162,214.265,377.731,214.63z"/>
				<path style="opacity:0.36;fill:#061A2D;" d="M407.298,226.876c0.772-0.34,1.545-0.811,2.311-1.37
					c-1.695-0.993-3.444-1.905-5.2-2.773c-9.327-4.611-16.313-6.633-26.677-8.103c-2.57-0.364-3.447,1.474-3.447,1.474l-0.477,0.962
					c0.077,0.123,0.149,0.254,0.23,0.372C379.364,225.181,398.696,230.668,407.298,226.876z"/>
				<path style="opacity:0.36;fill:#061A2D;" d="M417.734,252.839c-0.778,0.924-1.965,1.529-3.442,1.306
					c-4.632-0.702-11.92,0.898-15.385,4.103c-3.614,3.342-6.73,7.145-10.455,10.383c-8.29,7.207-17.49,13.859-27.409,18.64
					c-10.013,4.827-20.421,8.738-30.936,12.317c-0.556,0.189-1.113,0.38-1.67,0.57l20.768,9.093l48.05-2.874l18.946-36.031
					c2.886-5.489,4.721-11.436,5.446-17.506H417.734z"/>
				<g>
					<path style="fill:#EAA496;" d="M301.492,243.647c-1.063-2.221-2.155-4.47-3.717-6.371c-1.666-2.051-6.823-2.945-9.279-3.934
						c0,0-11.901,2.076-29.797,6.495c9.034,4.04,18.756,5.579,28.583,7.19c2.006,0.329,2.72,2.576,2.432,4.283
						c-0.457,2.708-1.221,5.32-2.1,7.896c0.128,0.096,0.255,0.194,0.383,0.288c9.824,7.133,19.64,14.266,29.464,21.399
						C312.624,268.274,307.298,255.852,301.492,243.647z"/>
					<path style="fill:#061A2D;" d="M340.719,314.441l27.038-22.701c0,0-9.656-10.025-14.944-13.937
						c-4.352-3.219-9.837-7.265-15.378-11.34c-9.816-7.21-31.698-22.335-31.698-22.335s-16.938,6.366-20.809,24.88l20.628,16.559
						l0,0C321.281,300.495,340.719,314.441,340.719,314.441z"/>
					<path style="fill:#E36325;" d="M230.21,258.412c0,0,0.833,1.022-1.105,2.435c-1.938,1.414-10.949,4.716-13.323,3.899
						c-2.374-0.817-19.642-35.974-16.602-38.756c2.747-2.514,26.879,22.009,26.879,22.009L230.21,258.412z"/>
				</g>
				<g>
					<path style="fill:#E36325;" d="M236.843,232.626c0,0,0.641,1.152-1.515,2.204c-2.156,1.052-11.606,2.722-13.8,1.501
						c-2.194-1.221-13.027-38.862-9.545-41.067c3.146-1.993,22.601,26.383,22.601,26.383L236.843,232.626z"/>
					<path style="fill:#F2C5BA;" d="M298.626,218.173c0,0-28.911-0.118-65.394,4.516c-0.68,0.086-2.145,2.505-2.223,5.568
						c-0.074,2.899,1.341,4.899,1.775,5.467c2.16,0.078,6.176,1.17,10.346,1.648c5.626,0.645,11.926,2.327,17.989,4.24
						c12.126,3.826,18.51,1.101,25.223,1.025c6.713-0.076,18.944,4.416,18.944,4.416L298.626,218.173z"/>
					<path style="fill:#F2C5BA;" d="M321.938,243.143c0,0-12.141-18.681-21.367-24.416c-6.276-3.901-19.367,8.664-15.545,18.94
						c3.94,10.594,16.031,22.348,16.031,22.348L321.938,243.143z"/>
					<path style="fill:#0A2544;" d="M335.808,307.174l30.601-17.605c0,0-7.748-11.564-12.267-16.343
						c-3.72-3.933-8.41-8.878-13.15-13.862c-8.399-8.82-27.288-27.55-27.288-27.55s-17.792,3.296-24.852,20.844l17.403,19.921l0,0
						C319.118,290.034,335.808,307.174,335.808,307.174z"/>
				</g>
				<path style="fill:#F2C5BA;" d="M453.875,223.319c2.004-3.127,1.435-7.24-1.342-9.707c-5.696-5.059-16.889-13.807-35.1-23.351
					c-12.216-6.403-8.814,2.194,1.144,13.118c13.227,14.51,30.303,27.736,30.303,27.736L453.875,223.319z"/>
				<path style="fill:#EAA496;" d="M431.56,198.311c-4.146-2.57-8.831-5.274-14.127-8.049c-12.216-6.403-8.814,2.194,1.144,13.118
					c2.004,2.199,4.098,4.367,6.206,6.466C426.996,205.973,429.245,202.123,431.56,198.311z"/>
				<g>
					<path style="fill:#061A2D;" d="M416.878,169.884c2.116,0.784,6.74,0.426,8.42,1.683c1.953,1.461,3.21,3.931,3.904,6.404
						c0.965,3.439-0.643,8.567-1.429,11.983c-1.366,5.94-4.232,11.528-8.258,16.103c-0.949,1.078-1.968,2.107-3.142,2.934
						c-0.962,0.678-2.017,1.212-3.079,1.717c-2.097,0.998-4.297,1.909-6.615,2.033c-2.123,0.113-4.22-0.44-6.274-0.989
						c-2.49-0.665-5.019-1.346-7.216-2.692c-2.675-1.639-4.68-4.151-6.626-6.611c-2.851-3.602-5.835-7.556-5.956-12.148
						c-0.039-1.487,0.231-2.963,0.501-4.425c0.376-2.045,0.758-4.107,1.544-6.032c1.401-3.431,4.003-6.224,6.724-8.739
						c0.577-0.534,1.164-1.06,1.804-1.517c3.365-2.404,7.798-2.645,11.924-2.36C407.433,167.528,412.469,168.251,416.878,169.884z"
						/>
					<g>
						<g>
							<path style="fill:#F2C5BA;" d="M384.26,209.592l-1.782,8.402c0,0,6.476,6.573,16.188,4.553l2.683-10.793L384.26,209.592z"/>
							<path style="fill:#EAA496;" d="M383.355,213.858c5.229,2.25,11.407,3.622,16.586,3.559l1.408-5.663l-17.089-2.161
								L383.355,213.858z"/>
							<path style="fill:#F2C5BA;" d="M406.329,213.4c-8.601,3.791-27.933-1.695-33.261-9.439
								c-6.029-8.763-2.323-33.501,7.41-37.791c8.601-3.791,34.069,3.436,39.397,11.18
								C425.903,186.113,416.062,209.11,406.329,213.4z"/>
							<path style="fill:#F2C5BA;" d="M418.596,190.848c1.17-1.377,6.112-0.462,8.398,2.383c2.286,2.846-3.296,10.886-6.693,11.228
								c-2.827,0.285-5.479-0.317-6.108-1.733C413.565,201.31,416.429,193.398,418.596,190.848z"/>
						</g>
						<g>
							<path style="fill:none;stroke:#6C351F;stroke-linecap:round;stroke-linejoin:round;stroke-miterlimit:10;" d="
								M396.289,187.37c-0.407,0.969-0.811,1.846-1.075,2.211c0,0-4.186-2.582-5.835,0.328c-1.894,3.343,1.567,6.08,1.567,6.08"/>
							<path style="fill:none;stroke:#6C351F;stroke-linecap:round;stroke-linejoin:round;stroke-miterlimit:10;" d="
								M382.478,177.97c0,0,1.823-2.63,5.098-1.038"/>
							<path style="fill:none;stroke:#6C351F;stroke-linecap:round;stroke-linejoin:round;stroke-miterlimit:10;" d="
								M412.737,186.179c0,0-0.17-3.195-3.793-3.561"/>
							<path style="fill:#6C351F;" d="M385.764,183.319c-0.367,1.295-1.163,2.203-1.777,2.029c-0.614-0.174-0.814-1.365-0.446-2.66
								c0.367-1.295,1.163-2.203,1.777-2.029C385.932,180.833,386.131,182.024,385.764,183.319z"/>
							<path style="fill:#6C351F;" d="M408.981,189.908c-0.367,1.295-1.163,2.203-1.777,2.029c-0.614-0.174-0.813-1.365-0.446-2.66
								c0.367-1.295,1.163-2.203,1.777-2.029C409.149,187.422,409.348,188.613,408.981,189.908z"/>
						</g>
						<path style="fill:#6C351F;" d="M420.9,195.798c-1.014,1.702-1.253,3.429-0.534,3.857c0.719,0.428,1.03-1.321,2.044-3.023
							c1.013-1.702,2.345-2.713,1.626-3.141C423.317,193.063,421.913,194.096,420.9,195.798z"/>
						<path style="fill:#F1728E;" d="M384.691,191.794c-0.216,0.761-2.376,0.815-4.824,0.12c-2.448-0.695-4.258-1.875-4.042-2.636
							c0.216-0.761,2.376-0.815,4.824-0.12C383.098,189.853,384.907,191.033,384.691,191.794z"/>
						<path style="fill:#F1728E;" d="M412.06,199.561c-0.216,0.761-2.376,0.815-4.824,0.12c-2.448-0.695-4.258-1.875-4.042-2.636
							c0.216-0.761,2.376-0.815,4.824-0.12C410.466,197.62,412.276,198.8,412.06,199.561z"/>
						<g>
							<path style="fill:#AE2024;" d="M396.854,203.364c-0.263,0.62-0.75,1.549-1.545,2.341c-0.213,0.225-0.445,0.432-0.709,0.618
								c-0.984,0.713-2.295,1.135-4.002,0.812c-2.004-0.37-3.278-1.216-4.076-2.162c-0.391-0.458-0.674-0.948-0.885-1.43
								c-0.349-0.869-0.451-1.691-0.465-2.254c-0.017-0.377,0.314-0.668,0.691-0.598l10.554,1.854
								C396.793,202.615,397.004,203.01,396.854,203.364z"/>
						</g>
						<path style="fill:#EF4F50;" d="M395.308,205.705c-0.213,0.225-0.445,0.432-0.709,0.618c-0.984,0.713-2.295,1.135-4.002,0.812
							c-2.004-0.37-3.278-1.216-4.076-2.162c-0.391-0.458-0.674-0.948-0.885-1.43C388.298,203.17,392.543,203.121,395.308,205.705z"
							/>
					</g>
					<path style="fill:#061A2D;" d="M415.229,177.155c0,0-16.443-3.031-35.091-8.732c0,0-2.432,6.488-4.287,7.93
						c-1.855,1.442-3.221,4.111-3.823,7.089c-0.603,2.977-1.42,5.268-1.822,4.505c-0.844-1.605,0.167-10.39,0.167-10.39
						s0.999-7.077,1.682-9.09c1.536-4.533,3.421-9.576,16.884-9.477c16.636,0.122,32.772,5.745,35.899,11.367
						c2.868,5.157-3.599,21.581-3.599,21.581s-3.379,7.583-4.519,8.486c-1.14,0.903-3.347,1.57-2.672,0.928
						c0.675-0.642,3.644-11.995,4.428-14.189C419.26,184.968,416.189,184.863,415.229,177.155z"/>
				</g>
				<path style="opacity:0.36;fill:#009345;" d="M404.276,320.939l-2.519-11.689h-11.54l5.563,19.674
					C398.655,326.311,401.464,323.623,404.276,320.939z"/>
				<path style="opacity:0.36;fill:#009345;" d="M363.587,331.473l6.283-22.223h-11.54l-3.885,18.026
					C357.412,328.842,360.483,330.191,363.587,331.473z"/>
				<path style="fill:#FFFFFF;" d="M429.615,220.246c-1.341-3.379-6.252-2.819-6.884,0.761
					c-7.186,40.694-42.704,71.609-85.46,71.609c-5.101,0-10.098-0.44-14.957-1.285c-9.712-1.688-15.158,10.743-7.262,16.646
					c12.313,9.206,27.549,14.715,44.067,14.882c40.461,0.409,74.349-31.948,75.711-72.388
					C435.189,239.771,433.307,229.551,429.615,220.246z"/>
				<path style="opacity:0.36;fill:#009345;" d="M429.615,220.246c-0.738-1.861-2.557-2.521-4.15-2.146
					c3.02,8.567,4.542,17.84,4.217,27.513c-1.362,40.44-35.249,72.797-75.711,72.388c-15.457-0.156-29.79-4.992-41.657-13.155
					c0.616,1.149,1.517,2.219,2.738,3.132c12.313,9.206,27.549,14.715,44.067,14.882c40.461,0.409,74.349-31.948,75.711-72.388
					C435.189,239.771,433.307,229.551,429.615,220.246z"/>
				<path style="fill:#F2C5BA;" d="M420.613,252.496c0,0,16.456-5.036,30.797-24.622c14.34-19.585-18.45-5.707-34.188,7.932
					L420.613,252.496z"/>
				<path style="fill:#E36325;" d="M397.368,254.444c4.547,0.922,11.091,1.671,18.881,0.885c9.187-0.926,19.876-8.36,24.048-11.677
					c-1.206-2.68-7.286-14.968-13.228-19.979l-8.066,6.305l-6.624-1.263C412.379,228.716,401.354,237.933,397.368,254.444z"/>
			</g>
			<g>
				<path style="fill:#061A2D;" d="M288.885,408.966h-63.72v-65.061c0-9.016,7.309-16.325,16.325-16.325h31.07
					c9.016,0,16.325,7.309,16.325,16.325V408.966z"/>
				<path style="fill:#061A2D;" d="M256.893,315.995c-5.017,0-9.084,4.067-9.084,9.084v2.501h1.559h0.643h1.181v-1.57
					c0-3.148,2.552-5.7,5.7-5.7c3.148,0,5.701,2.552,5.701,5.7v1.57h1.181h0.643h1.559v-2.501
					C265.977,320.062,261.91,315.995,256.893,315.995z"/>
				<path style="fill:#4D668E;" d="M271.946,366.813h-29.841c-5.284,0-9.567,4.283-9.567,9.567v32.586h48.975V376.38
					C281.512,371.096,277.229,366.813,271.946,366.813z"/>
				<rect x="238.411" y="374.186" style="fill:#061A2D;" width="36.958" height="2.809"/>
				<path style="fill:#061A2D;" d="M288.885,408.966L288.885,408.966v-25.301h2.411c2.158,0,3.908,1.75,3.908,3.908v15.074
					C295.204,406.137,292.375,408.966,288.885,408.966z"/>
				<path style="fill:#061A2D;" d="M225.165,408.966L225.165,408.966v-25.301h-2.411c-2.158,0-3.908,1.75-3.908,3.908v15.074
					C218.846,406.137,221.675,408.966,225.165,408.966z"/>
			</g>
		</g>
	</g>
</g>
</svg>