<?xml version="1.0" encoding="utf-8"?>
<!-- Generator: Adobe Illustrator 27.5.0, SVG Export Plug-In . SVG Version: 6.00 Build 0)  -->
<svg version="1.1" xmlns="http://www.w3.org/2000/svg" xmlns:xlink="http://www.w3.org/1999/xlink"
	x="0px" y="0px"
	viewBox="0 0 750 500" style="enable-background:new 0 0 750 500;" xml:space="preserve">
<g id="BACKGROUND">
	<g>
		<rect style="opacity:0.3;fill:#FEE2B3;" width="750" height="500"/>
		<path style="fill:#FEE2B3;" d="M750,395.411c-76.372-14.743-218.621-24.655-381.5-24.655c-154.042,0-289.637,8.865-368.5,22.298
			V500h750V395.411z"/>
	</g>
</g>
<g id="OBJECTS">
	<g>
		<g>
			<ellipse style="opacity:0.2;fill:#381531;" cx="379.211" cy="413.563" rx="272.204" ry="18.861"/>
			<g>
				<g>
					<path style="fill:#381531;" d="M628.346,406.258c0,4.213-3.415,7.628-7.628,7.628H137.704c-4.213,0-7.628-3.415-7.628-7.628
						V105.582c0-4.213,3.415-7.628,7.628-7.628h483.014c4.213,0,7.628,3.415,7.628,7.628V406.258z"/>
					<path style="fill:#562349;" d="M628.346,398.542c0,4.213-3.415,7.628-7.628,7.628H137.704c-4.213,0-7.628-3.415-7.628-7.628
						V97.866c0-4.213,3.415-7.628,7.628-7.628h483.014c4.213,0,7.628,3.415,7.628,7.628V398.542z"/>
					<circle style="fill:none;stroke:#381531;stroke-width:2.572;stroke-miterlimit:10;" cx="379.211" cy="389.127" r="9.002"/>
				</g>
				<rect x="142.904" y="116.6" style="fill:#FFFFFF;" width="472.613" height="258.061"/>
				<g>
					<circle style="fill:#FFA299;" cx="377.844" cy="104.064" r="1.942"/>
					<circle style="fill:#FFFFFF;" cx="389.601" cy="104.064" r="2.779"/>
				</g>
			</g>
		</g>
		<g>
			<g>
				<g>

						<line style="fill:none;stroke:#FFA299;stroke-width:0.8573;stroke-miterlimit:10;" x1="163.471" y1="348.405" x2="598.997" y2="348.405"/>
					<g>
						<rect x="556.839" y="316.684" style="fill:#FFA299;" width="11.145" height="31.721"/>
						<rect x="522.247" y="164.078" style="fill:#FFA299;" width="11.145" height="184.327"/>
						<rect x="487.656" y="319.256" style="fill:#FFA299;" width="11.145" height="29.149"/>
						<rect x="453.064" y="305.539" style="fill:#FFA299;" width="11.145" height="42.867"/>
						<rect x="418.472" y="325.258" style="fill:#FFA299;" width="11.145" height="23.148"/>
						<rect x="383.881" y="256.671" style="fill:#FFA299;" width="11.145" height="91.735"/>
						<rect x="349.289" y="211.232" style="fill:#FFA299;" width="11.145" height="137.174"/>
						<rect x="314.697" y="163.221" style="fill:#FFA299;" width="11.145" height="185.184"/>
						<rect x="262.81" y="254.956" style="fill:#FFA299;" width="11.145" height="93.45"/>
						<rect x="228.218" y="309.825" style="fill:#FFA299;" width="11.145" height="38.58"/>
						<rect x="193.627" y="205.23" style="fill:#FFA299;" width="11.145" height="143.175"/>
					</g>
					<g style="opacity:0.5;">
						<rect x="176.331" y="256.671" style="fill:#FFA299;" width="11.145" height="91.735"/>
						<rect x="539.543" y="200.087" style="fill:#FFA299;" width="11.145" height="148.319"/>
						<rect x="504.951" y="271.245" style="fill:#FFA299;" width="11.145" height="77.16"/>
						<rect x="470.36" y="336.403" style="fill:#FFA299;" width="11.145" height="12.003"/>
						<rect x="435.768" y="316.684" style="fill:#FFA299;" width="11.145" height="31.721"/>
						<rect x="401.177" y="238.667" style="fill:#FFA299;" width="11.145" height="109.739"/>
						<rect x="366.585" y="285.82" style="fill:#FFA299;" width="11.145" height="62.585"/>
						<rect x="331.993" y="189.798" style="fill:#FFA299;" width="11.145" height="158.607"/>
						<rect x="297.402" y="200.944" style="fill:#FFA299;" width="11.145" height="147.462"/>
						<rect x="280.106" y="228.378" style="fill:#FFA299;" width="11.145" height="120.027"/>
						<rect x="245.514" y="272.96" style="fill:#FFA299;" width="11.145" height="75.446"/>
						<rect x="210.923" y="233.523" style="fill:#FFA299;" width="11.145" height="114.883"/>
						<rect x="574.135" y="256.671" style="fill:#FFA299;" width="11.145" height="91.735"/>
					</g>
				</g>
				<g>
					<polyline style="fill:none;stroke:#562349;stroke-width:0.8573;stroke-miterlimit:10;" points="180.904,263.815
						199.193,205.23 233.546,310.371 320.078,163.506 371.804,286.105 406.668,238.38 424.673,325.257 459.252,305.252
						476.113,336.974 527.839,164.078 561.846,316.684 579.85,256.956 					"/>
					<circle style="fill:#562349;" cx="181.189" cy="263.243" r="2.161"/>
					<circle style="fill:#562349;" cx="199.193" cy="205.23" r="2.161"/>
					<circle style="fill:#562349;" cx="233.487" cy="310.111" r="2.161"/>
					<circle style="fill:#562349;" cx="320.078" cy="163.506" r="2.161"/>
					<circle style="fill:#562349;" cx="372.25" cy="286.105" r="2.161"/>
					<circle style="fill:#562349;" cx="406.794" cy="238.666" r="2.161"/>
					<circle style="fill:#562349;" cx="424.387" cy="325.989" r="2.161"/>
					<circle style="fill:#562349;" cx="459.377" cy="304.681" r="2.161"/>
					<circle style="fill:#562349;" cx="476.113" cy="336.974" r="2.161"/>
					<circle style="fill:#562349;" cx="562.132" cy="317.255" r="2.161"/>
					<circle style="fill:#562349;" cx="579.85" cy="256.67" r="2.161"/>
					<circle style="fill:#562349;" cx="527.839" cy="164.078" r="2.161"/>
				</g>
				<g>
					<polyline style="fill:none;stroke:#AD6989;stroke-width:0.8573;stroke-miterlimit:10;" points="180.904,311.54
						199.193,333.402 233.546,269.101 320.078,322.256 371.804,244.836 406.668,316.255 424.673,283.988 459.252,330.83
						476.113,215.518 527.839,299.537 561.846,214.661 579.85,290.106 					"/>
					<circle style="fill:#AD6989;" cx="181.189" cy="311.54" r="2.161"/>
					<circle style="fill:#AD6989;" cx="199.193" cy="332.687" r="2.161"/>
					<circle style="fill:#AD6989;" cx="320.078" cy="322.256" r="2.161"/>
					<circle style="fill:#AD6989;" cx="372.25" cy="245.239" r="2.161"/>
					<circle style="fill:#AD6989;" cx="406.794" cy="315.826" r="2.161"/>
					<circle style="fill:#AD6989;" cx="424.387" cy="283.372" r="2.161"/>
					<circle style="fill:#AD6989;" cx="476.113" cy="214.661" r="2.161"/>
					<circle style="fill:#AD6989;" cx="562.132" cy="214.661" r="2.161"/>
					<circle style="fill:#AD6989;" cx="579.85" cy="290.106" r="2.161"/>
					<circle style="fill:#AD6989;" cx="459.252" cy="330.83" r="2.161"/>
					<circle style="fill:#AD6989;" cx="527.839" cy="299.537" r="2.161"/>
					<circle style="fill:#AD6989;" cx="233.487" cy="268.959" r="2.161"/>
				</g>
			</g>
			<g>
				<g>
					<g>
						<path style="opacity:0.2;fill:#381531;" d="M236.999,156.551c9.745,16.879,19.49,33.758,29.235,50.637
							c1.806,3.129,6.522,3.129,8.328,0c9.745-16.879,19.49-33.758,29.236-50.637c1.011-1.752,0.812-3.444-0.02-4.75
							c-0.69-1.431-2.069-2.507-4.145-2.507c-3.065,0-6.13,0-9.196,0c0-32.763,0-44.128,0-76.891c0-2.629-2.194-4.823-4.822-4.823
							c-10.145,0-20.29,0-30.435,0c-1.499,0-2.633,0.563-3.409,1.414c-0.85,0.776-1.413,1.91-1.413,3.409
							c0,32.763,0,44.128,0,76.891c-3.065,0-6.13,0-9.196,0C237.493,149.294,235.173,153.387,236.999,156.551z"/>
						<path style="fill:#AD6989;" d="M232.1,154.101c9.745,16.879,19.49,33.758,29.236,50.637c1.806,3.129,6.522,3.129,8.328,0
							c9.745-16.879,19.49-33.758,29.236-50.637c1.011-1.752,0.812-3.444-0.02-4.75c-0.69-1.431-2.069-2.507-4.145-2.507
							c-3.065,0-6.13,0-9.196,0c0-32.763,0-44.128,0-76.891c0-2.629-2.194-4.823-4.823-4.823c-10.145,0-20.29,0-30.435,0
							c-1.499,0-2.633,0.563-3.409,1.414c-0.85,0.776-1.413,1.91-1.413,3.409c0,32.763,0,44.128,0,76.891c-3.065,0-6.13,0-9.196,0
							C232.594,146.845,230.273,150.938,232.1,154.101z"/>
					</g>
					<rect x="234.235" y="155.985" style="fill:none;" width="62.016" height="15.64"/>
					<text transform="matrix(1 0 0 1 248.7052 168.1591)" style="fill:#FFFFFF; font-family:'Rubik-Black'; font-size:17.1467px;">SELL </text>
				</g>
				<g>
					<g>
						<path style="opacity:0.2;fill:#381531;" d="M480.455,129.365c-9.745-16.879-19.49-33.758-29.236-50.637
							c-1.806-3.129-6.522-3.129-8.328,0c-9.745,16.879-19.49,33.758-29.236,50.637c-1.011,1.752-0.812,3.444,0.02,4.75
							c0.69,1.431,2.069,2.507,4.145,2.507c3.065,0,6.13,0,9.196,0c0,32.763,0,44.128,0,76.891c0,2.629,2.194,4.823,4.823,4.823
							c10.145,0,20.29,0,30.435,0c1.499,0,2.633-0.563,3.409-1.413c0.85-0.777,1.413-1.91,1.413-3.409c0-32.763,0-44.128,0-76.891
							c3.065,0,6.13,0,9.196,0C479.961,136.621,482.281,132.529,480.455,129.365z"/>
						<path style="fill:#AD6989;" d="M476.168,125.69c-9.745-16.879-19.49-33.758-29.235-50.637c-1.806-3.129-6.522-3.129-8.328,0
							c-9.745,16.879-19.49,33.758-29.236,50.637c-1.011,1.752-0.812,3.444,0.02,4.75c0.69,1.431,2.069,2.507,4.145,2.507
							c3.065,0,6.13,0,9.196,0c0,32.763,0,44.128,0,76.891c0,2.629,2.194,4.822,4.822,4.822c10.145,0,20.29,0,30.435,0
							c1.499,0,2.633-0.563,3.409-1.413c0.85-0.776,1.413-1.91,1.413-3.409c0-32.763,0-44.128,0-76.891c3.065,0,6.13,0,9.196,0
							C475.674,132.947,477.994,128.854,476.168,125.69z"/>
					</g>
					<rect x="411.883" y="109.145" style="fill:none;" width="62.016" height="19.593"/>
					<text transform="matrix(1 0 0 1 428.0601 121.3193)" style="fill:#FFFFFF; font-family:'Rubik-Black'; font-size:17.1467px;">BUY</text>
				</g>
			</g>
		</g>
	</g>
	<g>
		<ellipse style="opacity:0.2;fill:#381531;" cx="635.34" cy="456.649" rx="78.376" ry="10.535"/>
		<g>
			<g>
				<g>
					<g>
						<path style="fill:#21081C;" d="M683.548,133.172c10.596-10.73,18.102-31.473,3.911-39.066
							c-14.19-7.593-21.265,7.927-21.658,8.476l1.999,1.941c0,0,3.563-5.696,10.909-0.954c7.345,4.743-27.853,37.153-15.727,50.492
							c12.126,13.339,24.516,1.557,24.516,1.557C676.316,159.189,674.042,142.798,683.548,133.172z"/>
						<path style="fill:#FEE2B3;" d="M665.03,100.368c0,2.484,2.014,4.498,4.498,4.498c2.484,0,4.498-2.014,4.498-4.498
							c0-2.485-2.014-4.499-4.498-4.499C667.044,95.87,665.03,97.884,665.03,100.368z"/>
					</g>
					<path style="fill:#F28B86;" d="M624.905,136.98c0,0-1.443,20.15-5.112,20.45c-6.179,0.505-25.442-1.588-27.898,1.587
						c-2.456,3.175,9.464,27.483,28.974,24.48c19.509-3.004,34.289-16.733,34.289-16.733l-5.38-4.088c0,0-11.829-3.067-11.587-4.42
						c1.138-6.372,6.989-24.87,6.989-24.87L624.905,136.98z"/>
					<g>
						<path style="fill:#21081C;" d="M639.164,88.69c0,0-10.602-8.739-25.719,1.923c-15.117,10.661-15.314,42.644-0.785,48.586
							C627.188,145.141,639.164,88.69,639.164,88.69z"/>
						<path style="fill:#FFA299;" d="M642.945,96.658c0,0-20.914-10.723-30.165,15.068c-9.798,27.316,4.078,49.284,28.598,33.82
							C654.225,137.443,664.692,102.638,642.945,96.658z"/>
						<path style="fill:#21081C;" d="M657.72,135.044c6.748-5.248,28.678-30.177,2.437-44.235c0,0-21.497-14.862-26.987,3.336
							c-5.988,19.85,14.242,26.092,14.242,26.092s-5.248,8.622-1.499,13.495l5.677-10.063l-4.927,11.375l-4.873,10.309
							C647.599,143.103,650.385,140.749,657.72,135.044z"/>
					</g>
				</g>
				<g>
					<path style="fill:#FFA299;" d="M653.384,122.947c-0.652,0.155-1.244,0.411-1.795,0.722c-2.186,3.736-4.15,7.749-5.369,11.941
						c1.477,2.281,6.312,0.355,8.312-2.72C657.028,129.051,659.425,121.513,653.384,122.947z"/>
					<g>
						<path style="fill:#D67676;" d="M648.797,134.279c0.261-0.129,0.493-0.309,0.661-0.498c0.171-0.2,0.209-0.407,0.149-0.579
							c-0.024-0.089-0.087-0.179-0.144-0.268c-0.073-0.09-0.141-0.181-0.23-0.266c-0.098-0.083-0.177-0.171-0.284-0.249
							c-0.106-0.078-0.212-0.153-0.312-0.235l-0.265-0.22l0.13-0.384c0.359-1.057,0.785-2.07,1.289-3.064
							c0.513-0.99,1.082-1.953,1.874-2.853c0.208-0.227,0.435-0.438,0.721-0.639c0.278-0.21,0.74-0.375,0.959-0.407
							c0.365-0.074,0.691-0.088,1.038-0.037c0.342,0.057,0.697,0.156,1.001,0.388c0.298,0.231,0.521,0.556,0.621,0.895
							c0.09,0.337,0.097,0.672,0.029,0.969c-0.048,0.303-0.152,0.579-0.285,0.833c-0.114,0.262-0.29,0.489-0.444,0.718
							c0.046-0.277,0.098-0.545,0.12-0.812c0.026-0.263,0.036-0.527,0.003-0.767c-0.053-0.496-0.272-0.86-0.594-0.974
							c-0.149-0.079-0.346-0.093-0.539-0.092c-0.197-0.002-0.415,0.072-0.58,0.111c-0.308,0.1-0.356,0.147-0.508,0.272
							c-0.151,0.126-0.294,0.313-0.455,0.487c-0.305,0.383-0.601,0.799-0.869,1.25c-0.286,0.435-0.56,0.889-0.823,1.35l-1.596,2.789
							l-0.135-0.603c0.212,0.232,0.411,0.475,0.586,0.754c0.088,0.138,0.161,0.299,0.229,0.455c0.054,0.176,0.099,0.351,0.091,0.551
							c-0.003,0.194-0.067,0.393-0.169,0.551c-0.106,0.157-0.247,0.267-0.388,0.347
							C649.392,134.214,649.089,134.269,648.797,134.279z"/>
					</g>
					<g>
						<path style="fill:#D67676;" d="M623.893,120.244c-0.175,0.821-0.438,1.605-0.789,2.396c-0.192,0.377-0.396,0.752-0.608,1.123
							c-0.24,0.354-0.488,0.706-0.747,1.05c-0.292,0.318-0.582,0.643-0.887,0.953l-1.028,0.817
							c-0.376,0.229-0.766,0.436-1.152,0.646c-0.413,0.154-0.826,0.314-1.243,0.449l0.357-0.655
							c0.065,0.193,0.119,0.391,0.189,0.585c0.092,0.184,0.171,0.376,0.266,0.561c0.113,0.174,0.207,0.365,0.336,0.533
							c0.138,0.159,0.256,0.34,0.403,0.495c0.154,0.147,0.294,0.319,0.465,0.454c0.173,0.13,0.333,0.289,0.519,0.411
							c0.19,0.113,0.373,0.249,0.57,0.363l0.614,0.32c-0.228-0.032-0.464-0.057-0.698-0.1c-0.23-0.052-0.456-0.13-0.685-0.205
							c-0.226-0.081-0.438-0.198-0.658-0.304c-0.216-0.112-0.406-0.267-0.613-0.402c-0.204-0.14-0.371-0.324-0.555-0.492
							c-0.176-0.175-0.321-0.38-0.484-0.573c-0.15-0.201-0.264-0.429-0.393-0.647c-0.107-0.229-0.197-0.468-0.294-0.705
							l-0.169-0.412l0.527-0.243c0.352-0.162,0.71-0.299,1.067-0.442c0.335-0.19,0.658-0.4,0.999-0.579l0.93-0.698
							c0.278-0.275,0.574-0.531,0.862-0.8c0.255-0.301,0.524-0.592,0.796-0.886c0.237-0.321,0.483-0.638,0.739-0.954
							c0.216-0.336,0.455-0.664,0.697-0.999C623.44,120.947,623.654,120.59,623.893,120.244z"/>
					</g>
					<path style="fill:#FFFFFF;" d="M616.143,133.657c0,0,10.481,1.983,15.541,3.68
						C631.685,137.337,620.197,143.598,616.143,133.657z"/>
					<g>
						<path style="fill:#21081C;" d="M636.105,125.416c0,0,0.024-0.229,0.05-0.621c0.027-0.392,0.057-0.95,0.034-1.599
							c-0.014-0.325-0.052-0.669-0.105-1.021c-0.064-0.35-0.17-0.7-0.321-1.014c-0.158-0.311-0.373-0.576-0.649-0.755
							c-0.117-0.118-0.307-0.144-0.452-0.23c-0.169-0.052-0.358-0.071-0.535-0.115c-0.111-0.014-0.416-0.021-0.614-0.032
							l-0.509,0.069c-0.349,0.107-0.701,0.214-1.001,0.426c-0.303,0.198-0.588,0.432-0.825,0.696
							c-0.243,0.258-0.453,0.533-0.637,0.797c-0.363,0.534-0.625,1.025-0.8,1.376c-0.176,0.351-0.266,0.562-0.266,0.562
							s-0.005-0.229,0.049-0.628c0.057-0.397,0.167-0.968,0.44-1.62c0.135-0.326,0.303-0.677,0.547-1.017
							c0.23-0.346,0.525-0.695,0.906-0.983c0.37-0.299,0.827-0.536,1.323-0.68c0.26-0.052,0.549-0.097,0.807-0.121
							c0.248,0.009,0.392-0.005,0.726,0.022c0.258,0.061,0.518,0.103,0.77,0.192c0.242,0.129,0.511,0.202,0.718,0.392
							c0.461,0.317,0.744,0.804,0.927,1.254c0.182,0.458,0.23,0.914,0.245,1.329c0.01,0.416-0.031,0.8-0.09,1.146
							c-0.115,0.693-0.313,1.236-0.465,1.607C636.219,125.218,636.105,125.416,636.105,125.416z"/>
					</g>
					<g>
						<path style="fill:#21081C;" d="M620.62,122.141c0,0,0.011-0.229,0.015-0.623c0.005-0.392,0.004-0.952-0.056-1.599
							c-0.032-0.323-0.089-0.665-0.161-1.014c-0.083-0.346-0.208-0.689-0.377-0.995c-0.175-0.302-0.404-0.554-0.69-0.718
							c-0.124-0.112-0.314-0.127-0.464-0.205c-0.171-0.043-0.362-0.051-0.54-0.085c-0.112-0.007-0.417,0.002-0.615,0.002
							l-0.505,0.097c-0.342,0.127-0.688,0.253-0.976,0.481c-0.292,0.214-0.563,0.465-0.785,0.741
							c-0.228,0.271-0.423,0.557-0.592,0.831c-0.332,0.553-0.567,1.059-0.722,1.418c-0.156,0.36-0.235,0.576-0.235,0.576
							s-0.018-0.229,0.014-0.63c0.034-0.4,0.113-0.976,0.349-1.642c0.117-0.333,0.265-0.693,0.489-1.046
							c0.21-0.358,0.486-0.723,0.85-1.032c0.353-0.319,0.795-0.581,1.283-0.752c0.257-0.066,0.543-0.128,0.799-0.166
							c0.248-0.005,0.392-0.026,0.726-0.018c0.261,0.047,0.523,0.074,0.779,0.148c0.249,0.115,0.522,0.173,0.739,0.352
							c0.478,0.29,0.788,0.761,0.995,1.2c0.207,0.448,0.281,0.9,0.318,1.314c0.033,0.415,0.013,0.801-0.026,1.15
							c-0.076,0.698-0.243,1.252-0.375,1.63C620.723,121.937,620.62,122.141,620.62,122.141z"/>
					</g>
					<g>
						<path style="fill:#21081C;" d="M629.155,115.057c0,0,0.119-0.228,0.409-0.563c0.284-0.34,0.735-0.791,1.378-1.214
							c0.32-0.214,0.681-0.436,1.101-0.599c0.404-0.201,0.876-0.323,1.362-0.451c0.501-0.067,1.026-0.173,1.572-0.115
							c0.55-0.009,1.092,0.13,1.633,0.27c0.532,0.158,1.027,0.425,1.503,0.676c0.43,0.316,0.87,0.618,1.221,0.968
							c0.337,0.364,0.636,0.737,0.914,1.083c0.235,0.374,0.431,0.743,0.605,1.08c0.085,0.17,0.177,0.324,0.243,0.483
							c0.052,0.165,0.102,0.322,0.149,0.469c0.097,0.29,0.159,0.552,0.214,0.763c0.106,0.424,0.138,0.672,0.138,0.672
							s-0.211-0.158-0.532-0.443c-0.159-0.144-0.356-0.313-0.556-0.517c-0.198-0.207-0.437-0.423-0.707-0.638
							c-0.266-0.219-0.547-0.453-0.815-0.717c-0.313-0.213-0.638-0.427-0.946-0.672c-0.324-0.222-0.687-0.377-1.016-0.598
							c-0.368-0.13-0.713-0.327-1.089-0.424c-0.374-0.102-0.745-0.217-1.134-0.247c-0.38-0.083-0.771-0.051-1.155-0.085
							c-0.381,0.042-0.771,0.006-1.135,0.078c-0.367,0.047-0.723,0.101-1.056,0.166c-0.661,0.138-1.239,0.276-1.646,0.392
							C629.394,114.99,629.155,115.057,629.155,115.057z"/>
					</g>
					<g>
						<path style="fill:#21081C;" d="M624.147,115.785c0,0-0.642-0.627-1.604-1.567c-0.221-0.233-0.487-0.455-0.735-0.709
							c-0.274-0.226-0.53-0.496-0.824-0.72c-0.147-0.112-0.289-0.232-0.431-0.354l-0.453-0.313
							c-0.292-0.238-0.619-0.353-0.919-0.546c-0.319-0.087-0.62-0.285-0.938-0.305c-0.158-0.023-0.313-0.074-0.471-0.1
							c-0.16,0.005-0.318,0.009-0.479-0.001c-0.323-0.055-0.641,0.075-0.962,0.101c-0.33,0.009-0.62,0.173-0.917,0.248
							c-0.291,0.094-0.589,0.15-0.819,0.277c-0.235,0.113-0.459,0.197-0.644,0.272c-0.371,0.147-0.609,0.219-0.609,0.219
							s0.096-0.212,0.311-0.562c0.109-0.174,0.24-0.392,0.413-0.625c0.153-0.254,0.397-0.474,0.67-0.719
							c0.284-0.23,0.556-0.541,0.969-0.713c0.401-0.18,0.804-0.453,1.318-0.507c0.249-0.052,0.506-0.09,0.768-0.127
							c0.262-0.011,0.531,0.023,0.802,0.048c0.559,0.007,1.046,0.263,1.564,0.428c0.443,0.272,0.938,0.505,1.289,0.854
							c0.395,0.313,0.716,0.669,0.999,1.028c0.299,0.348,0.507,0.731,0.725,1.076c0.182,0.366,0.363,0.702,0.481,1.035
							c0.252,0.657,0.381,1.229,0.44,1.635C624.154,115.546,624.147,115.785,624.147,115.785z"/>
					</g>
				</g>
			</g>
			<g>
				<path style="fill:#AD6989;" d="M664.766,169.736c-2.405-3.006-7.656-5.563-14.363-7.615c-5.476,5.121-12.222,8.38-20.597,7.734
					c-9.458-0.729-19.804-5.431-23.698-13.574c-8.127,0.068-14.776,0.906-17.982,2.593c-11.466,6.035-21.121,27.76-21.121,27.76
					l101.383,16.294C668.387,202.927,673.829,181.065,664.766,169.736z"/>
				<path style="opacity:0.2;fill:#491B3F;" d="M571.067,178.726c-2.543,4.493-4.063,7.907-4.063,7.907l101.383,16.294
					c0,0,1.38-5.549,1.592-12.503C637.064,186.012,604.181,181.315,571.067,178.726z"/>
			</g>
			<g>
				<g>
					<g>
						<path style="fill:#FFA299;" d="M597.207,345.376c0,0,13.303,38.641-0.633,111.49c0,0-38.535,8.143-6.861-3.975
							c0,0-18.236-68.454-23.937-93.16C560.074,335.026,597.207,345.376,597.207,345.376z"/>
						<path style="fill:#F28B86;" d="M601.396,423.918c5.117-51.492-4.19-78.542-4.19-78.542s-37.132-10.35-31.431,14.355
							c3.19,13.824,10.305,41.344,15.953,62.906C587.81,424.453,594.775,424.738,601.396,423.918z"/>
					</g>
					<path style="fill:#562349;" d="M585.203,454.275c0,0-9.436,2.992-9.666,5.063c-0.23,2.071,21.633-1.611,21.633-1.611
						l0.23-2.531C597.4,455.196,581.29,456.347,585.203,454.275z"/>
				</g>
				<g>
					<g>
						<path style="fill:#FFA299;" d="M629.129,349.244c0,0,0.195,40.867,37.391,105.035c0,0,39.063-5.03,5.165-6.016
							c0,0-5.377-70.638-8.148-95.84C660.766,327.22,629.129,349.244,629.129,349.244z"/>
						<path style="fill:#F28B86;" d="M651.094,424.769c-21.823-46.918-21.965-75.525-21.965-75.525s31.636-22.024,34.408,3.178
							c1.551,14.102,3.917,42.428,5.701,64.647C664.096,420.79,657.615,423.358,651.094,424.769z"/>
					</g>
					<path style="fill:#562349;" d="M676.399,448.081c0,0,9.895-0.29,10.795,1.59c0.901,1.879-20.953,5.618-20.953,5.618
						l-1.053-2.314C665.188,452.975,680.776,448.745,676.399,448.081z"/>
				</g>
				<path style="fill:#21081C;" d="M582.393,221.936c0,0-34.398,21.725-33.492,66.08c0.905,44.355,19.914,127.634,19.914,127.634
					s20.82,9.052,38.019-0.905l-6.243-109.292l37.925,108.387c0,0,19.914,2.716,40.734-9.052c0,0-10.862-140.307-61.554-181.041
					L582.393,221.936z"/>
			</g>
			<g>
				<g>
					<path style="fill:#FEE2B3;" d="M684.968,299.196c-0.89,5.964-6.446,10.077-12.41,9.187l-142.54-21.267
						c-5.964-0.89-10.077-6.446-9.187-12.41l12.996-87.108c0.89-5.964,6.446-10.077,12.41-9.187l142.54,21.267
						c5.964,0.89,10.077,6.446,9.187,12.41L684.968,299.196z"/>

						<rect x="598.65" y="137.705" transform="matrix(0.1476 -0.9891 0.9891 0.1476 304.4308 793.9827)" style="fill:#562349;" width="28.363" height="165.351"/>

						<rect x="567.986" y="206.322" transform="matrix(0.1476 -0.9891 0.9891 0.1476 246.3321 778.717)" style="fill:#FFFFFF;" width="13.88" height="80.261"/>

						<rect x="540.289" y="247.357" transform="matrix(0.1476 -0.9891 0.9891 0.1476 206.3606 768.5456)" style="fill:#FFFFFF;" width="17.501" height="34.398"/>

						<rect x="631.85" y="241.196" transform="matrix(0.1476 -0.9891 0.9891 0.1476 291.348 850.0045)" style="fill:#FFFFFF;" width="13.88" height="29.57"/>
				</g>
				<g>
					<path style="fill:#FFA299;" d="M694.391,260.997c0,0,2.337-1.626-0.134-2.712c0,0-26.047-7.476-3.241,1.67
						c0,0-28.898-4.012-0.138,3.33c0,0-26.531-5.035-1.072,2.772c0,0-21.832-1.642,0.134,2.712l-0.365,4.852
						c0,0,1.602-0.27,2.793-1.963c1.452-1.392,2.722-3.474,1.642-6.111C694.012,265.547,696.635,263.605,694.391,260.997z"/>
					<path style="fill:#FFA299;" d="M525.135,217.143c0,0-1.937-2.086,0.708-2.622c0,0,27.042-1.764,2.811,2.322
						c0,0,29.09,2.226-0.574,3.283c0,0,26.995,0.723,0.458,2.936c0,0,21.682,3.04-0.708,2.622l-0.676,4.818
						c0,0-1.508-0.605-2.312-2.512c-1.123-1.669-1.92-3.974-0.305-6.32C524.538,221.67,522.388,219.214,525.135,217.143z"/>
				</g>
			</g>
		</g>
	</g>
	<g>
		<ellipse style="opacity:0.1;fill:#21081C;" cx="116.47" cy="464.73" rx="83.175" ry="8.073"/>
		<g>
			<g>
				<g>
					<g>
						<path d="M84.408,423.471c0,0,2.959,35.425,1.973,37.101c-0.986,1.676-74.722,11.489-14.057-5.505l-3.452-30.399
							L84.408,423.471z"/>
					</g>
					<g>
						<path d="M134.967,405.752c0,0,4.602,53.145,5.588,54.821c0.986,1.676,74.722,11.489,14.057-5.505l-4.108-48.119
							L134.967,405.752z"/>
					</g>
				</g>
				<g>
					<path style="fill:#21081C;" d="M60.976,237.225c0,0-2.941,125.544,7.947,213.39l20.075,1.651L95,278.388l7.145,0.66
						l34.482,172.373l21.201-1.605l-25.401-213.251L60.976,237.225z"/>
					<g>
						<path style="fill:#4C1B42;" d="M121.22,245.688h13.574l-1.406-5.8l-12.382-0.116
							C121.085,241.743,121.157,243.715,121.22,245.688z"/>
						<path style="fill:#4C1B42;" d="M116.785,239.732l-41.732-0.391c0.011,2.116,0.037,4.232,0.067,6.347h41.882
							C116.938,243.702,116.866,241.717,116.785,239.732z"/>
						<path style="fill:#4C1B42;" d="M70.835,239.301l-10.211-0.096l0.352,6.483h9.926C70.872,243.559,70.846,241.43,70.835,239.301
							z"/>
						<path style="fill:#FEE2B3;" d="M104.915,239.888l-13.709-0.682l-0.703,7.506h14.764L104.915,239.888z M93.315,245.371
							l0.452-4.825l8.813,0.439l0.226,4.387H93.315z"/>
					</g>
				</g>
			</g>
			<g>
				<g>
					<g>
						<g>
							<polygon style="fill:#FFA299;" points="79.458,125.082 78.739,106.147 100.009,105.22 101.177,125.54 94.753,144.12
								"/>
							<path style="fill:#F28B86;" d="M99.012,114.094c0.587,0.118,1.17,0.256,1.755,0.385l-0.758-9.259l-21.27,0.928l0.243,3.906
								C85.613,111.611,92.326,112.752,99.012,114.094z"/>
						</g>
						<path style="fill:#FFA299;" d="M71.895,81.097c0,0,3.807,24.779,6.691,25.979c4.461,1.856,27.084,10.515,33.775,2.474
							c3.003-3.609,4.461-39.277-2.868-52.576S79.543,43.984,73.17,53.881C66.797,63.778,71.895,81.097,71.895,81.097z"/>
					</g>
					<g>
						<path style="fill:#21081C;" d="M120.328,39.654c0,0-2.23,5.567-6.691,5.258S78.905,22.335,70.94,45.531
							c0,0-11.337-1.13-14.02,10.824c-5.656,25.206,14.976,42.679,19.997,40.6l-6.054-21.649l3.582,14.759l4.78-1.082l-4.142-15
							c1.9-2.795,4.015-5.44,3.824-6.185c-0.319-1.237,0-8.66,0-8.66s35.687,8.041,41.104-3.711l-5.417,2.165
							C114.592,57.592,124.151,52.644,120.328,39.654z"/>
						<g>
							<path style="fill:#FFA299;" d="M76.038,91.302c0,0-4.461-17.628-10.196-14.613c-5.735,3.015,2.629,20.876,10.037,16.237
								L76.038,91.302z"/>
							<g>
								<path style="fill:#D67676;" d="M73.967,91.766c-0.505-0.06-1.005-0.166-1.5-0.314c-0.247-0.075-0.489-0.169-0.733-0.272
									c-0.245-0.102-0.483-0.234-0.716-0.395c-0.115-0.087-0.227-0.192-0.34-0.292c-0.106-0.118-0.205-0.267-0.296-0.415
									c-0.049-0.185-0.145-0.384-0.109-0.584c0.029-0.2,0.064-0.426,0.169-0.557c0.093-0.142,0.188-0.331,0.302-0.415l0.339-0.313
									c0.232-0.173,0.466-0.315,0.708-0.464l-0.333,0.627c-0.233-1.144-0.51-2.309-0.816-3.438
									c-0.317-1.126-0.66-2.252-1.148-3.248c-0.237-0.497-0.544-0.948-0.874-1.237c-0.169-0.136-0.33-0.214-0.514-0.232
									c-0.135-0.003-0.342-0.035-0.395-0.004c-0.086,0.005-0.181,0.008-0.275,0.054c-0.39,0.104-0.643,0.604-0.769,1.149
									c-0.112,0.555-0.142,1.16-0.109,1.768c-0.236-0.564-0.393-1.17-0.411-1.816c0.007-0.322,0.016-0.662,0.154-1.002
									c0.12-0.335,0.368-0.683,0.72-0.882c0.324-0.233,0.839-0.286,1.076-0.292c0.419-0.028,0.846,0.113,1.172,0.318
									c0.653,0.422,1.03,1.001,1.369,1.553c0.34,0.559,0.578,1.147,0.798,1.733c0.217,0.587,0.409,1.177,0.555,1.777
									c0.313,1.197,0.524,2.394,0.66,3.628l0.046,0.417l-0.379,0.21c-0.189,0.105-0.406,0.188-0.588,0.291l-0.239,0.166
									c-0.103,0.054-0.103,0.113-0.167,0.164c-0.076,0.057-0.048,0.096-0.083,0.137c-0.038,0.044,0.008,0.09-0.018,0.15
									c0.035,0.066,0.058,0.14,0.102,0.219l0.192,0.237c0.308,0.31,0.714,0.597,1.134,0.846
									C73.071,91.3,73.513,91.538,73.967,91.766z"/>
							</g>
						</g>
						<path style="fill:#21081C;" d="M72.102,76.421c0,0,2.103,28.821,5.298,31.177c8.279,6.107,22.187,9.643,32.784,8.035
							c10.597-1.607,4.967-23.785,4.967-23.785s-1.325,9.964-2.98,9c-1.656-0.964,1.987-7.714-2.649-7.714
							c-4.636,0-18.544-2.893-18.876,2.25c-0.331,5.143-3.643,6.107-6.623,3.536c-2.98-2.571-8.941-26.999-8.941-26.999
							L72.102,76.421z"/>
					</g>
				</g>
				<g>
					<g>
						<path style="fill:#D67676;" d="M99.919,92.813c2.612-0.629,5.24-1.123,7.871-1.594l-0.518,0.854
							c-0.652-1.345-1.256-2.707-1.826-4.083l-0.82-2.077l-0.756-2.101c-0.253-0.7-0.464-1.415-0.698-2.122
							c-0.23-0.709-0.42-1.432-0.632-2.147c-0.38-1.447-0.741-2.901-0.966-4.407c0.824,1.28,1.511,2.611,2.18,3.95
							c0.312,0.677,0.646,1.347,0.941,2.031c0.29,0.686,0.603,1.363,0.875,2.056l0.817,2.078l0.753,2.102
							c0.479,1.41,0.923,2.833,1.32,4.274l0.222,0.806l-0.74,0.048C105.275,92.65,102.605,92.799,99.919,92.813z"/>
					</g>
					<g>
						<path style="fill:#21081C;" d="M103.795,73.596c0,0-0.206-0.934,0.242-2.244c0.121-0.321,0.267-0.671,0.488-1.014
							c0.195-0.357,0.499-0.685,0.811-1.027c0.361-0.3,0.728-0.639,1.206-0.846c0.446-0.268,0.969-0.378,1.485-0.499
							c0.515-0.055,1.052-0.078,1.541-0.004c0.242,0.045,0.48,0.099,0.712,0.161c0.234,0.055,0.46,0.114,0.654,0.226
							c0.399,0.196,0.789,0.381,1.109,0.607c0.307,0.244,0.585,0.486,0.828,0.716c0.254,0.218,0.429,0.477,0.585,0.701
							c0.162,0.215,0.282,0.426,0.383,0.592c0.198,0.336,0.283,0.55,0.283,0.55s-0.244-0.014-0.622-0.078
							c-0.386-0.042-0.874-0.208-1.46-0.289c-0.289-0.048-0.589-0.107-0.891-0.181c-0.305-0.057-0.62-0.064-0.925-0.125
							c-0.309-0.073-0.605-0.004-0.899-0.056c-0.29,0.01-0.565,0.034-0.838,0.065c-0.262,0.064-0.535,0.088-0.79,0.198
							c-0.27,0.06-0.514,0.216-0.789,0.313c-0.244,0.161-0.526,0.272-0.763,0.453c-0.257,0.154-0.491,0.332-0.722,0.498
							c-0.456,0.337-0.862,0.66-1.151,0.898C103.968,73.456,103.795,73.596,103.795,73.596z"/>
					</g>
					<g>
						<path style="fill:#21081C;" d="M99.5,73.365c0,0-0.241-0.083-0.663-0.229c-0.202-0.069-0.448-0.153-0.73-0.249
							c-0.273-0.088-0.582-0.186-0.918-0.294c-0.339-0.085-0.688-0.201-1.061-0.277c-0.366-0.105-0.753-0.161-1.139-0.233
							c-0.387-0.055-0.782-0.095-1.17-0.111c-0.389,0.007-0.778-0.017-1.154,0.064c-0.389-0.001-0.744,0.157-1.12,0.225
							c-0.368,0.101-0.709,0.288-1.075,0.401c-0.337,0.185-0.667,0.378-1.003,0.544c-0.323,0.187-0.609,0.417-0.905,0.598
							c-0.289,0.189-0.568,0.364-0.786,0.556c-0.222,0.186-0.44,0.336-0.617,0.465c-0.357,0.256-0.593,0.396-0.593,0.396
							s0.042-0.254,0.17-0.684c0.066-0.214,0.142-0.482,0.258-0.775c0.058-0.147,0.109-0.311,0.186-0.472
							c0.084-0.156,0.187-0.31,0.288-0.479c0.213-0.329,0.417-0.718,0.723-1.063c0.324-0.329,0.671-0.689,1.07-1.021
							c0.447-0.271,0.894-0.608,1.422-0.808c0.534-0.188,1.082-0.398,1.663-0.435c0.288-0.021,0.577-0.078,0.861-0.06
							c0.284,0.012,0.567,0.044,0.845,0.068c0.283,0.008,0.54,0.106,0.803,0.167c0.258,0.074,0.522,0.121,0.752,0.236
							c0.476,0.192,0.919,0.402,1.3,0.658c0.398,0.226,0.717,0.522,1.018,0.768C99.096,72.37,99.5,73.365,99.5,73.365z"/>
					</g>
					<g>
						<path style="fill:#21081C;" d="M89.957,77.396c0,0,0.088,0.204,0.221,0.565c0.073,0.175,0.128,0.412,0.245,0.642
							c0.12,0.228,0.252,0.477,0.375,0.747c0.179,0.25,0.356,0.527,0.556,0.797c0.242,0.237,0.452,0.524,0.749,0.721
							c0.26,0.248,0.6,0.377,0.91,0.55l0.507,0.162c0.173,0.033,0.349,0.035,0.522,0.06c0.345,0.009,0.695-0.019,1.012-0.146
							c0.171-0.032,0.307-0.14,0.459-0.213l0.225-0.118l0.188-0.171c0.274-0.202,0.462-0.487,0.669-0.745
							c0.167-0.282,0.307-0.576,0.447-0.847c0.087-0.291,0.182-0.56,0.269-0.804c0.073-0.246,0.1-0.472,0.146-0.656
							c0.08-0.37,0.139-0.591,0.139-0.591s0.049,0.212,0.113,0.597c0.023,0.192,0.086,0.431,0.084,0.705
							c-0.008,0.274-0.019,0.59-0.048,0.937c-0.075,0.337-0.156,0.719-0.313,1.099c-0.194,0.367-0.377,0.783-0.733,1.108
							l-0.245,0.263l-0.301,0.212c-0.206,0.139-0.408,0.298-0.658,0.363c-0.473,0.202-0.995,0.273-1.51,0.269
							c-0.254-0.036-0.513-0.058-0.759-0.116l-0.708-0.254c-0.433-0.233-0.843-0.498-1.153-0.835
							c-0.359-0.294-0.558-0.694-0.79-1.026c-0.193-0.356-0.318-0.72-0.441-1.041c-0.081-0.346-0.135-0.661-0.181-0.933
							c-0.05-0.27-0.012-0.501-0.02-0.694C89.94,77.618,89.957,77.396,89.957,77.396z"/>
					</g>
					<g>
						<path style="fill:#21081C;" d="M105.704,76.342c0,0,0.08,0.197,0.201,0.545c0.063,0.171,0.123,0.391,0.215,0.623
							c0.107,0.224,0.227,0.469,0.338,0.735c0.133,0.259,0.324,0.519,0.478,0.805c0.221,0.238,0.4,0.538,0.666,0.747
							c0.132,0.105,0.246,0.239,0.39,0.326c0.148,0.081,0.293,0.165,0.434,0.26l0.465,0.171c0.157,0.045,0.32,0.038,0.478,0.068
							c0.159,0.02,0.314-0.025,0.473-0.025c0.158-0.015,0.298-0.101,0.45-0.14c0.275-0.148,0.565-0.301,0.777-0.555l0.175-0.169
							l0.136-0.205c0.091-0.136,0.192-0.264,0.276-0.4c0.116-0.301,0.283-0.571,0.374-0.851c0.078-0.283,0.165-0.545,0.243-0.782
							c0.05-0.244,0.093-0.457,0.128-0.633c0.076-0.356,0.13-0.566,0.13-0.566s0.046,0.203,0.108,0.571
							c0.026,0.184,0.074,0.41,0.089,0.672c-0.003,0.261-0.008,0.56-0.029,0.89c-0.024,0.329-0.133,0.68-0.226,1.058
							c-0.177,0.348-0.285,0.774-0.607,1.104c-0.263,0.363-0.641,0.685-1.081,0.911c-0.234,0.085-0.463,0.208-0.712,0.248
							c-0.251,0.025-0.508,0.087-0.759,0.066c-0.248-0.04-0.507-0.057-0.742-0.132c-0.229-0.09-0.461-0.176-0.679-0.278
							c-0.2-0.128-0.393-0.266-0.578-0.404c-0.181-0.142-0.317-0.323-0.47-0.479c-0.319-0.307-0.473-0.705-0.679-1.03
							c-0.137-0.361-0.273-0.694-0.35-1.017c-0.065-0.329-0.107-0.63-0.143-0.889c-0.026-0.257,0-0.479,0-0.663
							C105.685,76.554,105.704,76.342,105.704,76.342z"/>
					</g>
					<path style="fill:#FFFFFF;" d="M92.185,96.708l18.076,0.522C110.261,97.229,106.275,105.066,92.185,96.708z"/>
				</g>
			</g>
			<g>
				<g>
					<path style="fill:#FFA299;" d="M187.971,167.662c0,0-31.495,42.165-45.07,40.584c-9.941-1.158-18.463-43.746-18.463-43.746
						l21.178-6.852l6.516,24.245l29.323-22.137L187.971,167.662z"/>
					<path style="fill:#F28B86;" d="M167.531,191.715c10.866-11.236,20.441-24.053,20.441-24.053l-6.516-7.906l-29.323,22.137
						l-6.516-24.245l-21.178,6.852c0,0,2.136,10.677,5.518,21.484C142.475,187.934,154.997,189.867,167.531,191.715z"/>
				</g>
				<g>
					<g>
						<path style="fill:#FEE2B3;" d="M133.709,128.858c0,0,9.554,3.316,13.174,21.939l-19.549,7.379L133.709,128.858z"/>
						<path style="fill:#FEE2B3;" d="M134.213,129.011c0,0-15.964-8.022-29.596-6.169l-9.896,18.443l-18.799-18.246
							c-14.518,0.306-24.025,12.41-23.886,13.352c0.351,2.388,8.94,100.835,8.94,100.835l71.452-0.661L134.213,129.011z"/>
						<path style="fill:#F2D1A0;" d="M111.04,185.637C89.503,172.53,69.929,157.87,52.411,140.22
							c1.715,18.492,8.564,97.005,8.564,97.005l71.452-0.661l0.629-37.894C125.655,194.427,118.322,190.069,111.04,185.637z"/>
					</g>
					<g>
						<polygon style="fill:#F2D1A0;" points="90.854,132.755 94.721,141.285 95.072,132.414 101.444,128.874 94.721,141.925
							86.68,134.76 						"/>
						<polygon style="fill:#FFEACC;" points="69.763,121.837 85.23,139.238 90.854,132.755 76.393,116.225 						"/>
						<polygon style="fill:#FFEACC;" points="95.072,132.414 100.697,137.191 113.351,121.155 105.969,117.402 						"/>
					</g>
				</g>
				<g>
					<g>
						<g>
							<path style="fill:#FFA299;" d="M51.312,147.275c0,0,25.703,52.348,39.459,57.957c13.757,5.609,46.338-42.627,46.338-42.627
								l-4.344-9.722l-35.477,25.8c0,0-18.101-40.383-29.323-47.488C56.742,124.092,51.312,147.275,51.312,147.275z"/>
							<path style="fill:#F28B86;" d="M126.542,176.976c6.204-7.913,10.567-14.37,10.567-14.37l-4.344-9.722l-9.75,7.09
								C124.158,165.648,125.338,171.314,126.542,176.976z"/>
							<path style="fill:#F28B86;" d="M85.383,154.955c-5.642-10.181-12.257-20.491-17.419-23.759
								c-11.222-7.104-16.653,16.079-16.653,16.079s5.524,11.25,12.82,23.877C70.722,165.026,77.596,159.265,85.383,154.955z"/>
						</g>
						<path style="fill:#FEE2B3;" d="M71.223,124.092c0,0-16.291,0.748-20.997,14.583c-4.706,13.835,9.412,32.531,9.412,32.531
							l27.151-21.687L71.223,124.092z"/>
					</g>
					<g>
						<path style="fill:#21081C;" d="M187.232,185.583c-0.15,1.405-1.445,2.426-2.892,2.281l-54.464-5.47
							c-1.448-0.145-2.5-1.402-2.35-2.807l3.556-33.357c0.15-1.405,1.445-2.426,2.893-2.281l54.464,5.47
							c1.448,0.145,2.5,1.402,2.35,2.808L187.232,185.583z"/>
						<path style="fill:#FFA299;" d="M194.382,158.358c0,0,2.692-1.818-0.154-3.033c0,0-30.006-8.359-3.733,1.868
							c0,0-33.289-4.486-0.159,3.723c0,0-30.563-5.63-1.234,3.099c0,0-25.15-1.835,0.154,3.033l-0.42,5.425
							c0,0,1.845-0.302,3.217-2.195c1.673-1.557,3.135-3.885,1.892-6.833C193.945,163.446,196.966,161.275,194.382,158.358z"/>
					</g>
				</g>
			</g>
		</g>
	</g>
</g>
</svg>